<svg width="36" height="48" viewBox="0 0 36 48" fill="none" xmlns="http://www.w3.org/2000/svg"><ellipse class="v-location-shadow" cx="18" cy="46" rx="14" ry="2" fill="#BABABA"/><path class="v-location" d="M7.073 3.626a18.029 18.029 0 00-4.677 5.405A18.52 18.52 0 00.14 15.88a18.661 18.661 0 00.522 7.212 18.365 18.365 0 003.217 6.432l12.224 15.702c.188.241.426.436.697.57a1.96 1.96 0 001.736 0c.271-.134.51-.329.697-.57L31.506 29.55a18.367 18.367 0 003.216-6.432c.643-2.344.82-4.797.522-7.212a18.519 18.519 0 00-2.256-6.85 18.028 18.028 0 00-4.676-5.405A17.385 17.385 0 0017.696 0 17.384 17.384 0 007.073 3.626zM16.35 27.82a10.244 10.244 0 01-5.232-2.328 10.674 10.674 0 01-3.247-4.816 10.945 10.945 0 01-.28-5.85 10.751 10.751 0 012.769-5.122 10.308 10.308 0 014.984-2.845 10.115 10.115 0 015.694.289 10.38 10.38 0 014.688 3.335 10.814 10.814 0 012.265 5.376c.207 1.62.049 3.27-.463 4.817a10.713 10.713 0 01-2.489 4.11 10.343 10.343 0 01-4 2.558 10.116 10.116 0 01-4.69.476z" fill="#A4A4A4"/></svg>