<svg width="56" height="42" viewBox="0 0 56 42" fill="none" xmlns="http://www.w3.org/2000/svg"><path class="v-hanger" fill-rule="evenodd" clip-rule="evenodd" d="M27.412 3.191a1 1 0 011.177 0l22 16-1.177 1.618L28 5.236 6.588 20.81l-1.176-1.62 22-16z" fill="#314967"/><circle class="v-nail" cx="28" cy="4" r="4" fill="#A4A4A4"/><rect class="v-bounds-shadow" y="18" width="56" height="24" rx="2" fill="#777"/><rect class="v-bounds" y="16" width="56" height="24" rx="2" fill="#A4A4A4"/><path d="M13.604 26.672h1.521c-.03-1.475-1.287-2.519-3.145-2.519-1.832 0-3.209 1.032-3.204 2.574 0 1.253.89 1.973 2.326 2.344l.993.256c.942.238 1.564.532 1.568 1.21-.004.746-.711 1.244-1.742 1.244-.99 0-1.756-.443-1.82-1.36H8.545c.064 1.735 1.356 2.711 3.388 2.711 2.093 0 3.307-1.044 3.311-2.582-.004-1.513-1.252-2.203-2.565-2.515l-.818-.204c-.716-.17-1.492-.473-1.483-1.202.004-.656.592-1.138 1.58-1.138.943 0 1.565.44 1.646 1.18zm2.69-1.074h2.698V33h1.568v-7.402h2.697v-1.325h-6.963v1.325zm15.753 3.038c0-2.82-1.722-4.483-4.01-4.483-2.293 0-4.01 1.662-4.01 4.483 0 2.817 1.717 4.483 4.01 4.483 2.288 0 4.01-1.662 4.01-4.483zm-1.59 0c0 1.986-.997 3.064-2.42 3.064-1.419 0-2.42-1.078-2.42-3.064 0-1.985 1.001-3.064 2.42-3.064 1.423 0 2.42 1.079 2.42 3.064zM33.566 33h1.58v-3.196h1.611L38.47 33h1.765l-1.888-3.46c1.027-.414 1.568-1.291 1.568-2.476 0-1.666-1.074-2.791-3.077-2.791h-3.272V33zm1.58-4.509v-2.897h1.45c1.18 0 1.708.54 1.708 1.47 0 .929-.528 1.427-1.7 1.427h-1.457zM41.395 33h5.71v-1.325h-4.129v-2.382h3.801v-1.326h-3.8v-2.369h4.094v-1.325h-5.676V33z" fill="#fff"/></svg>