<svg width="32" height="32" viewBox="0 0 32 32" fill="none" xmlns="http://www.w3.org/2000/svg">
<path fill-rule="evenodd" clip-rule="evenodd" d="M9.14935 14.0551C8.13769 14.0308 7.17067 13.6391 6.42634 12.952C6.41238 12.9392 6.3991 12.9254 6.38697 12.9108L1.24971 6.79223C0.89471 6.36912 0.921031 5.75543 1.31105 5.36466C1.51017 5.16514 1.77499 5.05506 2.05675 5.05506C2.3385 5.05506 2.60332 5.16514 2.80244 5.36466L7.46135 10.0324C7.57121 10.1425 7.74997 10.1425 7.85983 10.0324L8.08917 9.80241L2.8972 4.60007C2.72142 4.42417 2.72142 4.13889 2.8972 3.96299C3.07275 3.7871 3.35748 3.7871 3.53304 3.96299L8.72523 9.16511L9.06169 8.82822L3.86949 3.62588C3.69394 3.44998 3.69394 3.1647 3.86949 2.9888C4.04505 2.81267 4.32978 2.81267 4.50533 2.9888L9.69753 8.19092L9.9271 7.96113C10.037 7.85105 10.037 7.67194 9.9271 7.56186L5.26842 2.89386C4.85712 2.48198 4.85712 1.81165 5.26842 1.39954C5.65844 1.00877 6.27093 0.982164 6.69299 1.33808L12.7998 6.48516C12.8144 6.49754 12.8282 6.51085 12.841 6.52483C13.5267 7.27062 13.9177 8.23953 13.9419 9.25317C13.9422 9.25638 13.9422 9.25959 13.9422 9.2628L13.9476 11.0323C13.9499 11.7219 14.242 12.3851 14.7494 12.8516L15.5816 13.6111C15.7652 13.7788 15.7785 14.0636 15.6114 14.2477C15.4441 14.4317 15.1598 14.445 14.976 14.2773L14.1424 13.5166C13.4498 12.8796 13.0513 11.9755 13.0481 11.0353L13.0429 9.27037C13.023 8.48652 12.7234 7.73661 12.1983 7.15595L6.11414 2.02768C6.05189 1.97539 5.96171 1.97929 5.90426 2.03685C5.84383 2.09739 5.84383 2.19624 5.90426 2.25678L10.5629 6.92456C11.0234 7.38597 11.0234 8.13679 10.5629 8.59821L10.0157 9.14653L10.0154 9.14676C10.0154 9.14699 10.0152 9.14699 10.0152 9.14699L9.04315 10.121V10.1212L8.49567 10.6695C8.03515 11.1312 7.28579 11.1312 6.82528 10.6697L2.16661 6.00173C2.12701 5.96206 2.08078 5.95633 2.05675 5.95633C2.03271 5.95633 1.98648 5.96206 1.94711 6.00173C1.88966 6.0593 1.88577 6.14965 1.93796 6.21203L7.05599 12.3081C7.63575 12.8339 8.38397 13.1341 9.16652 13.1541L10.9278 13.1596C11.8664 13.1628 12.7687 13.5618 13.4031 14.2549L14.1822 15.1116C14.3496 15.2955 14.3363 15.5806 14.1525 15.7482C14.0664 15.8269 13.9579 15.8657 13.8499 15.8657C13.7277 15.8657 13.6062 15.8161 13.5173 15.7184L12.7394 14.8628C12.275 14.3558 11.6133 14.0629 10.9248 14.0608L9.15874 14.0553C9.15576 14.0553 9.15256 14.0553 9.14935 14.0551ZM23.3002 13.0367L25.0629 12.9247L25.0723 12.9241C26.3284 12.8179 27.4558 12.1586 28.1658 11.1146L29.5593 9.06627C30.7721 7.28301 31.242 5.12914 30.882 3.00165C30.8113 2.58381 30.5979 2.19877 30.2816 1.91784C29.9651 1.63668 29.5581 1.47064 29.1356 1.45046C26.9837 1.34726 24.9065 2.07309 23.2851 3.49333L21.4225 5.12501C20.4733 5.95633 19.9551 7.15687 20.0005 8.41933L20.0009 8.42874L20.1014 10.1953C20.1405 10.8839 19.8885 11.5634 19.4113 12.0583L4.85942 27.0368C4.46986 27.4438 4.26868 28.0023 4.29317 28.6093C4.32018 29.2776 4.62619 29.9339 5.11188 30.3653C5.55065 30.7549 6.15375 30.9769 6.75663 30.9769C6.82117 30.9769 6.88572 30.9744 6.95003 30.9691C7.55451 30.9207 8.08392 30.6538 8.44235 30.2148L21.536 13.9476C21.9702 13.4123 22.6134 13.0802 23.3002 13.0367ZM20.837 13.3807L7.74449 29.6466C7.54444 29.8915 7.23682 30.0424 6.87839 30.071C6.45199 30.1052 6.01482 29.963 5.70858 29.691C5.40233 29.4188 5.20916 29.001 5.19199 28.5728C5.17734 28.213 5.28972 27.889 5.50624 27.6629L20.057 12.6856C20.7093 12.0093 21.0526 11.083 20.9995 10.1441L20.899 8.38218C20.8649 7.394 21.2712 6.45444 22.0144 5.80337L23.877 4.17169C25.3227 2.90556 27.1752 2.25908 29.0928 2.35035C29.3112 2.3609 29.5213 2.44667 29.6849 2.59207C29.8486 2.73723 29.9587 2.93629 29.9953 3.15209C30.3162 5.04888 29.8973 6.96882 28.8161 8.55854L27.4226 10.6071C26.8667 11.4245 25.9844 11.9412 25.0011 12.0258L23.2433 12.1372C22.3067 12.1969 21.43 12.6496 20.837 13.3807ZM30.1692 26.9239L20.4122 18.0197C20.2286 17.8521 19.9444 17.8654 19.7768 18.0493C19.6097 18.2332 19.623 18.5183 19.8066 18.6859L29.5611 27.588C29.7932 27.8029 29.9248 28.1196 29.9319 28.4797C29.9404 28.9081 29.7726 29.3367 29.4831 29.6268C29.1937 29.9167 28.7667 30.0852 28.3382 30.0765C27.9788 30.0694 27.6627 29.9375 27.4506 29.7075L18.7562 20.1435C18.5889 19.9594 18.3044 19.9463 18.1209 20.1137C17.9373 20.2814 17.924 20.5664 18.0913 20.7503L26.7877 30.3166C27.17 30.7308 27.7142 30.9656 28.3206 30.9775C28.3364 30.9778 28.3519 30.978 28.3677 30.978C29.0193 30.978 29.671 30.7131 30.1189 30.2641C30.578 29.8041 30.8442 29.1305 30.8309 28.462C30.819 27.8545 30.5849 27.3092 30.1692 26.9239Z" fill="#1C1C1C"/>
</svg>
