<svg width="32" height="32" viewBox="0 0 32 32" fill="none" xmlns="http://www.w3.org/2000/svg">
<path fill-rule="evenodd" clip-rule="evenodd" d="M0 16.465V14H32V16.465C32 22.1854 28.2942 27.1091 22.738 28.8336V32H9.2619V28.8336C3.70583 27.1091 0 22.1854 0 16.465ZM2.54069 22.2777C4.06058 24.9633 6.63092 27.0288 9.84474 27.9486H22.1569C27.4375 26.4367 30.9802 21.8305 30.9802 16.4651V15.0139H24.2195H1.01979V16.465C1.01979 18.1657 1.3761 19.79 2.0306 21.2639L2.54069 22.2777ZM21.7182 28.9624V30.9862H10.2817V28.9624H21.7182ZM29.2551 16.1033C29.2551 15.8217 29.4834 15.5934 29.765 15.5934C30.0466 15.5934 30.2749 15.8217 30.2749 16.1033V16.3507C30.2749 16.6243 30.2652 16.8989 30.2459 17.1716C30.2261 17.4522 29.9724 17.6527 29.6929 17.6208C29.4129 17.5888 29.2132 17.3357 29.2318 17.0544C29.2473 16.8206 29.2551 16.5853 29.2551 16.3507V16.1033ZM28.9579 18.8281C29.0253 18.5552 29.2907 18.374 29.5668 18.4267C29.8437 18.4795 30.0264 18.7476 29.9601 19.0216C29.5759 20.6096 28.8389 22.1113 27.8115 23.3918C26.8044 24.647 25.5154 25.6956 24.0617 26.4464C23.8135 26.5746 23.5122 26.464 23.3937 26.2111C23.2743 25.9566 23.3855 25.6545 23.6347 25.5244C26.3066 24.129 28.2536 21.6795 28.9579 18.8281ZM11.6895 21.0271L16 16.7419L20.3106 21.0271L16 25.3124L11.6895 21.0271ZM16 18.1756L13.1316 21.0271L16 23.8787L18.8684 21.0271L16 18.1756Z" fill="#1C1C1C"/>
<path d="M28.8604 5.66178C28.7636 5.56066 28.6271 5.50269 28.4859 5.50269H26.8041C23.481 5.50269 20.2788 6.69268 17.7872 8.85345C17.7182 8.9133 17.6296 8.94615 17.5376 8.94615H11.465C11.3042 8.94615 11.1572 9.02598 11.0716 9.15975C10.9861 9.29347 10.9766 9.45831 11.0462 9.60071L11.314 10.1481C12.1917 11.9421 14.0675 13.1012 16.0928 13.1012C17.9972 13.1012 19.75 12.006 20.558 10.3111C20.8153 9.77141 21.242 9.3203 21.7593 9.04089C22.7607 8.50018 23.894 8.21433 25.0364 8.21433H26.6436C27.8885 8.21433 28.923 7.25861 28.999 6.03839C29.0077 5.90007 28.9571 5.7628 28.8604 5.66178ZM26.6437 7.42962H25.0365C23.76 7.42962 22.4938 7.74895 21.3749 8.35312C20.7008 8.71718 20.1684 9.27908 19.8351 9.97815C19.1579 11.3986 17.689 12.3165 16.0928 12.3165C14.3725 12.3165 12.7792 11.3319 12.0336 9.80808L11.9958 9.73086H17.5375C17.8242 9.73086 18.1005 9.62822 18.3153 9.44188C20.661 7.40765 23.6757 6.2874 26.8041 6.2874H28.1538C27.9766 6.94724 27.3633 7.42962 26.6437 7.42962Z" fill="#1C1C1C"/>
<path fill-rule="evenodd" clip-rule="evenodd" d="M18.3627 9.93039C18.4318 9.81414 18.5764 9.76075 18.6993 9.81733L18.9055 9.9123C19.0678 9.9871 19.1389 10.1812 19.0471 10.3346C18.9572 10.4848 18.7582 10.5166 18.6151 10.4157L18.4297 10.2849C18.3168 10.2053 18.2921 10.0491 18.3627 9.93039ZM17.7209 10.6626C17.8905 10.5287 18.1358 10.5169 18.2953 10.6625C18.4588 10.8118 18.4694 11.0681 18.2997 11.2102C17.7658 11.6575 17.1042 11.9395 16.407 12.0169C16.1916 12.0408 16.0154 11.8629 16.0154 11.6462C16.0154 11.4295 16.192 11.2567 16.4064 11.2258C16.887 11.1567 17.3423 10.9616 17.7209 10.6626Z" fill="#1C1C1C"/>
<path d="M14.7628 2.10123H13.9643C13.9643 2.48088 13.8346 2.65105 13.655 2.88662C13.4462 3.16054 13.1862 3.50152 13.1862 4.14252C13.1862 4.48785 13.259 4.77626 13.4153 5.05033L14.1118 4.66676C14.0526 4.56297 13.9847 4.40953 13.9847 4.14252C13.9847 3.76288 14.1144 3.59271 14.294 3.35714C14.5029 3.08322 14.7628 2.74224 14.7628 2.10123Z" fill="#1C1C1C"/>
<path fill-rule="evenodd" clip-rule="evenodd" d="M17.1321 3.35709C16.9526 3.59261 16.8228 3.76284 16.8228 4.14248C16.8228 4.52215 16.9525 4.69239 17.132 4.92794L17.1321 4.92808L17.1322 4.92812C17.341 5.20208 17.6009 5.54306 17.6009 6.18403C17.6009 6.82506 17.341 7.16604 17.1322 7.44L17.1321 7.44004L17.132 7.44018C16.9525 7.67573 16.8228 7.84596 16.8228 8.22563H16.0244C16.0244 7.58463 16.2842 7.24365 16.4931 6.96963L16.4932 6.96949C16.6727 6.73394 16.8024 6.5637 16.8024 6.18403C16.8024 5.80441 16.6727 5.63417 16.4932 5.39863L16.4931 5.39848L16.493 5.3983C16.2842 5.12431 16.0244 4.78339 16.0244 4.14248C16.0244 3.50156 16.2842 3.16063 16.493 2.88668L16.4931 2.88658C16.6727 2.65106 16.8024 2.48083 16.8024 2.10119H17.6009C17.6009 2.74211 17.341 3.08303 17.1322 3.35698L17.1321 3.35709ZM13.8373 5.66001L14.5339 5.27654C14.6901 5.55051 14.7628 5.83887 14.7628 6.18409C14.7628 6.82514 14.5029 7.16618 14.294 7.44009L14.294 7.44014C14.1144 7.67574 13.9847 7.84597 13.9847 8.22569H13.1862C13.1862 7.58473 13.4461 7.24375 13.6549 6.96975L13.655 6.96963C13.8346 6.73406 13.9643 6.56383 13.9643 6.18409C13.9643 5.91713 13.8964 5.76374 13.8373 5.66001Z" fill="#1C1C1C"/>
</svg>
