<svg width="32" height="32" viewBox="0 0 32 32" fill="none" xmlns="http://www.w3.org/2000/svg">
<g clip-path="url(#clip0)">
<path d="M11.9062 25.4531C9.49539 24.6274 7.39638 23.081 5.89318 21.0231C5.78225 20.8672 5.59625 20.7826 5.40581 20.8015C5.21537 20.8204 5.04968 20.94 4.97155 21.1147C4.89349 21.2895 4.91505 21.4926 5.02806 21.6471C6.66069 23.8835 8.94095 25.5643 11.5603 26.4619C11.8387 26.5567 12.1413 26.4083 12.2367 26.1301C12.3322 25.8519 12.1843 25.549 11.9062 25.4531Z" fill="#1C1C1C"/>
<path d="M4.31661 17.9666C4.22261 17.6874 3.9201 17.5373 3.64098 17.6312C3.36179 17.7252 3.21173 18.0278 3.30566 18.3069C3.43173 18.6808 3.57804 19.0546 3.74054 19.4176C3.86098 19.6864 4.17654 19.8066 4.44536 19.6862C4.71417 19.5658 4.83442 19.2502 4.71398 18.9814C4.56536 18.6496 4.43173 18.3083 4.31661 17.9666Z" fill="#1C1C1C"/>
<path d="M18.3875 6.66653C18.3879 7.50972 18.7257 8.31772 19.3255 8.91028C19.5342 9.11628 19.87 9.11528 20.0773 8.90791C20.2847 8.70053 20.2857 8.36478 20.0797 8.15609C19.6797 7.76372 19.4542 7.2269 19.4542 6.66653C19.4542 6.10615 19.6797 5.56933 20.0797 5.17696C21.3639 3.89283 20.7633 1.90639 19.5464 0.689445C19.3378 0.483445 19.002 0.484445 18.7946 0.69182C18.5873 0.899133 18.5862 1.23495 18.7922 1.44363C19.6435 2.29495 20.1198 3.62852 19.3255 4.42283C18.7256 5.01533 18.3879 5.82334 18.3875 6.66653Z" fill="#1C1C1C"/>
<path d="M12.5208 9.33322C12.5212 10.1764 12.859 10.9844 13.4588 11.577C13.6675 11.783 14.0033 11.782 14.2107 11.5746C14.418 11.3673 14.419 11.0315 14.213 10.8228C13.813 10.4304 13.5875 9.8936 13.5875 9.33322C13.5875 8.77284 13.813 8.23603 14.213 7.84365C15.4972 6.55952 14.8967 4.57307 13.6797 3.35613C13.4711 3.15013 13.1353 3.15113 12.9279 3.35851C12.7205 3.56588 12.7195 3.90163 12.9255 4.11032C13.7768 4.96164 14.2531 6.29521 13.4588 7.08952C12.859 7.68202 12.5212 8.49003 12.5208 9.33322Z" fill="#1C1C1C"/>
<path d="M6.93327 6.1332C6.93364 6.97639 7.27146 7.78439 7.87127 8.37695C8.00571 8.51308 8.20277 8.56677 8.38765 8.51764C8.57253 8.46852 8.71696 8.32408 8.76609 8.1392C8.81522 7.95433 8.76153 7.75726 8.6254 7.62283C8.22534 7.23045 7.9999 6.69364 7.9999 6.13326C7.9999 5.57288 8.22534 5.03607 8.6254 4.64369C9.90953 3.35956 9.30903 1.37312 8.09209 0.156181C7.88346 -0.0498196 7.54765 -0.0488196 7.34027 0.158556C7.13296 0.365869 7.1319 0.701683 7.3379 0.910371C8.18921 1.76169 8.66553 3.09525 7.87121 3.88957C7.27146 4.48201 6.93364 5.29001 6.93327 6.1332Z" fill="#1C1C1C"/>
<path d="M25.6747 13.1814C25.7789 10.9029 26.0289 7.83703 26.6287 6.33815C27.3649 4.49702 29.5951 3.15926 30.5198 2.66963C31.1877 2.31126 31.456 1.49125 31.1292 0.807439C30.8024 0.123562 29.9958 -0.182752 29.2974 0.111874C27.2038 0.96594 25.3972 2.39945 24.0896 4.24414C22.726 6.28933 22.1992 10.1888 21.9953 12.937C20.0843 12.8475 18.0736 12.7999 16 12.7999C12.4559 12.778 8.91286 12.9353 5.3846 13.271C0.907766 13.7502 0.533264 14.3549 0.533264 14.9333C0.533264 14.9457 0.534702 14.9581 0.535077 14.9705L0.534514 14.9706L0.536202 14.9937C0.537202 15.0133 0.538077 15.0328 0.540389 15.0525C0.549452 15.1781 0.567639 15.4232 0.582952 15.5956C0.928953 19.5175 2.83196 23.1372 5.8666 25.6456V28.8001C5.8666 30.9009 10.9643 32.0001 16 32.0001C21.0356 32.0001 26.1333 30.9009 26.1333 28.8001V25.9285C29.3624 23.396 31.3101 19.5679 31.456 15.4667C31.456 15.4226 31.4612 15.1825 31.4643 15.0444C31.4664 15.0062 31.4667 14.9692 31.4667 14.9334C31.4667 14.4669 31.465 13.6955 25.6747 13.1814ZM30.0034 14.9324C28.5631 15.3073 27.0891 15.5383 25.6031 15.6221C25.6069 15.3141 25.6151 14.8365 25.6336 14.2484C27.1094 14.3299 28.5733 14.5591 30.0034 14.9324ZM23.0285 13.5215L23.0287 13.5207L23.0285 13.52C23.1977 10.8739 23.668 6.79934 24.977 4.83583C26.1683 3.16464 27.8106 1.86707 29.712 1.09469C29.8843 1.02238 30.0831 1.09713 30.165 1.26507C30.2469 1.433 30.1836 1.63563 30.0206 1.72701C28.7427 2.40357 26.4745 3.85095 25.638 5.9419C24.657 8.39484 24.5471 14.3133 24.5349 15.7086C24.0234 15.7478 23.4902 15.783 22.9352 15.8142C22.94 15.4587 22.9587 14.6132 23.0285 13.5215ZM16 13.8665C18.0509 13.8665 20.039 13.9135 21.9281 14.0016C21.8807 14.9068 21.8697 15.5835 21.8673 15.8648C19.9563 15.9511 17.9899 15.9999 16 15.9999C8.50355 15.9999 3.46946 15.4324 1.95589 14.9332C3.46946 14.4341 8.50361 13.8665 16 13.8665ZM25.0667 28.8C25.0667 29.5239 21.8664 30.9333 16 30.9333C10.1335 30.9333 6.93323 29.5239 6.93323 28.8V26.4658C9.5878 28.3331 12.7544 29.3346 16 29.3334C19.2147 29.3642 22.3677 28.4494 25.0667 26.7027V28.8ZM25.3155 25.2083C25.2772 25.2308 25.2419 25.258 25.2104 25.2893C22.5473 27.26 19.3128 28.3056 16 28.2666C8.69448 28.2666 2.50165 22.894 1.69389 15.9519C2.90109 16.2823 4.13684 16.4977 5.38466 16.5954C8.91292 16.9311 12.4559 17.0884 16.0001 17.0665C18.1868 17.0665 20.3543 17.0142 22.4428 16.9111C23.3928 16.8631 24.2962 16.8035 25.1264 16.734C26.8929 16.6516 28.6462 16.3862 30.358 15.9422C30.0807 19.6103 28.2449 22.9836 25.3155 25.2083Z" fill="#1C1C1C"/>
</g>
<defs>
<clipPath id="clip0">
<rect width="32" height="32" fill="white"/>
</clipPath>
</defs>
</svg>
