<svg width="32" height="32" viewBox="0 0 32 32" fill="none" xmlns="http://www.w3.org/2000/svg">
<g clip-path="url(#clip0)">
<path fill-rule="evenodd" clip-rule="evenodd" d="M29.8884 14.2391C30.5295 14.3139 31.1086 14.6444 31.507 15.1715C31.9708 15.785 32.1161 16.5628 31.9056 17.3055C31.0481 20.3307 28.7407 22.9682 25.3944 24.757C25.3232 25.6494 24.9288 26.477 24.2731 27.1019C23.5834 27.7593 22.681 28.1214 21.7322 28.1214H10.2694C9.32064 28.1214 8.41826 27.7593 7.72858 27.1019C7.0727 26.4769 6.67826 25.6491 6.60726 24.7561C3.25625 22.9646 0.947375 20.3232 0.0927482 17.2938C-0.115377 16.5561 0.0303731 15.7828 0.492562 15.1722C0.93575 14.5867 1.6015 14.2446 2.32719 14.2247L1.60275 11.5209C1.4505 10.9527 1.60788 10.3653 2.02381 9.9494C2.43975 9.53359 3.02719 9.37615 3.59525 9.5284L3.63319 9.53852L3.85738 5.99239C3.89451 5.40539 4.23119 4.89895 4.75807 4.63764C5.28495 4.37614 5.89188 4.41464 6.38176 4.74033L9.46558 6.79071L9.29539 6.15545C9.14314 5.58727 9.30052 4.99989 9.71645 4.58395C10.1323 4.16808 10.7199 4.01058 11.2879 4.16295L18.0868 5.98477C18.4357 6.0782 18.7327 6.27733 18.9453 6.54883C19.3392 6.2907 19.8223 6.21514 20.2732 6.34183C20.5502 6.41977 20.797 6.56689 20.9935 6.76477L24.9 4.15539C25.3891 3.82864 25.996 3.78901 26.5234 4.0492C27.0509 4.30939 27.3887 4.8152 27.4271 5.40202L27.7644 10.5603L29.8884 14.2391ZM28.7595 14.2227L26.8732 10.9557L26.872 10.9534L25.8772 9.2304C25.7584 9.02465 25.5456 8.90183 25.308 8.90183C25.0704 8.90183 24.8576 9.02465 24.7388 9.2304L24.0379 10.4443C24.2564 10.5505 24.4522 10.7051 24.6072 10.9008C24.9319 11.3108 25.0379 11.8361 24.8982 12.3418L24.3785 14.2228H24.8935C24.7831 14.1339 24.7122 13.9978 24.7122 13.845C24.7122 13.5773 24.9293 13.3602 25.197 13.3602C25.4648 13.3602 25.6819 13.5773 25.682 13.845C25.682 13.9978 25.6112 14.1338 25.5007 14.2227H28.7595ZM26.0945 4.91876C25.8814 4.81351 25.6362 4.82964 25.4387 4.96164L21.4394 7.63283C21.4489 7.68833 21.4562 7.74433 21.46 7.80108L21.6506 10.6639L22.921 10.334C22.9442 10.328 22.9677 10.3228 22.9911 10.3178L23.8989 8.74558C24.1929 8.23621 24.7196 7.93215 25.3078 7.93215C25.8656 7.93215 26.3677 8.20602 26.6689 8.66871L26.4595 5.4652C26.444 5.22814 26.3075 5.02389 26.0945 4.91876ZM21.3359 11.7474L21.3329 11.7482L17.0692 12.8554L17.4116 13.4485C17.5511 13.6902 17.6241 13.9554 17.6304 14.2228H21.8552C21.7448 14.134 21.6739 13.9979 21.6739 13.8451C21.6739 13.5773 21.891 13.3603 22.1587 13.3603C22.4265 13.3603 22.6435 13.5773 22.6435 13.8451C22.6435 13.9978 22.5728 14.1339 22.4624 14.2228H23.3725L23.9635 12.0837C24.0408 11.804 23.9237 11.5997 23.8469 11.5028C23.7159 11.3373 23.5151 11.2443 23.3105 11.251C23.2614 11.2529 23.2123 11.2602 23.1649 11.2725L21.3359 11.7474ZM19.0303 7.65821L19.0276 7.66002L15.452 10.0545L16.5661 11.9842L20.6953 10.912L20.4924 7.8654C20.4869 7.78308 20.467 7.70421 20.4333 7.63102C20.3535 7.45789 20.1993 7.32821 20.0105 7.27508C19.8252 7.22296 19.6336 7.25414 19.471 7.36308L19.0303 7.65821ZM8.30614 14.2228H16.6604C16.6553 14.1344 16.631 14.0359 16.5718 13.9333L13.0525 7.83752C12.9336 7.63171 12.7209 7.50889 12.4833 7.50889C12.2456 7.50889 12.0329 7.63171 11.9141 7.83752L8.3947 13.9333C8.33551 14.036 8.31126 14.1345 8.30614 14.2228ZM11.0369 5.09952C10.8073 5.03808 10.5701 5.10152 10.4021 5.26958C10.2341 5.43752 10.1705 5.67489 10.232 5.90452L10.687 7.60277L10.8626 7.71952L11.0743 7.35283C11.3683 6.84339 11.8951 6.53933 12.4832 6.53933C13.0713 6.53933 13.5981 6.84346 13.8921 7.35283L14.9662 9.21302L18.1335 7.09189C18.0539 7.01158 17.953 6.95264 17.8358 6.92127L11.0369 5.09952ZM5.18888 5.50633C4.97601 5.61189 4.84001 5.81645 4.82501 6.05358L4.58838 9.79465L8.98439 10.9725L10.3768 8.5609L5.84476 5.54789C5.64688 5.41614 5.4017 5.4007 5.18888 5.50633ZM3.34432 10.465C3.11475 10.4035 2.87744 10.467 2.70944 10.635C2.54144 10.803 2.47782 11.0403 2.53932 11.2698L3.33057 14.2228H7.3362C7.34251 13.9553 7.41551 13.6901 7.55501 13.4485L8.48264 11.8417L3.95394 10.6283L3.95076 10.6275L3.34432 10.465ZM24.9024 23.9194C28.0328 22.2556 30.185 19.8204 30.9727 17.041C31.0996 16.5934 31.0124 16.1252 30.7335 15.7562C30.4627 15.3979 30.0526 15.1924 29.6082 15.1924H29.6005L29.5995 15.1925L29.5985 15.1924H23.7433L23.7417 15.1925L23.7399 15.1924H17.0557L17.0539 15.1925L17.0514 15.1924H7.91676H7.91114H2.96025L2.95832 15.1925L2.95675 15.1924H2.39369C1.94856 15.1924 1.5375 15.3983 1.26575 15.7573C0.9885 16.1237 0.901187 16.5877 1.02606 17.0305C1.81131 19.8139 3.96519 22.2531 7.10082 23.9194H9.53564C9.80339 23.9194 10.0205 24.1364 10.0205 24.4042C10.0205 24.6721 9.80339 24.8891 9.53564 24.8891H7.60051C7.80895 26.1631 8.94233 27.1516 10.2695 27.1516H21.7324C23.0594 27.1516 24.1927 26.1631 24.4013 24.8891H11.4749C11.2071 24.8891 10.9901 24.6721 10.9901 24.4042C10.9901 24.1364 11.2071 23.9194 11.4749 23.9194H24.9024ZM11.5247 6.02288C11.5247 6.29064 11.3077 6.5077 11.0399 6.5077C10.7721 6.5077 10.5551 6.29064 10.5551 6.02288C10.5551 5.75513 10.7721 5.53807 11.0399 5.53807C11.3077 5.53807 11.5247 5.75513 11.5247 6.02288ZM25.4555 6.9602C25.7233 6.9602 25.9404 6.74314 25.9404 6.47538C25.9404 6.20763 25.7233 5.99057 25.4555 5.99057C25.1878 5.99057 24.9707 6.20763 24.9707 6.47538C24.9707 6.74314 25.1878 6.9602 25.4555 6.9602ZM24.1304 7.38038C24.1304 7.64814 23.9133 7.8652 23.6455 7.8652C23.3778 7.8652 23.1607 7.64814 23.1607 7.38038C23.1607 7.11263 23.3778 6.89557 23.6455 6.89557C23.9133 6.89557 24.1304 7.11263 24.1304 7.38038ZM22.9667 9.22277C22.9667 9.49053 22.7497 9.70759 22.4819 9.70759C22.2142 9.70759 21.9971 9.49053 21.9971 9.22277C21.9971 8.95502 22.2142 8.73796 22.4819 8.73796C22.7497 8.73796 22.9667 8.95502 22.9667 9.22277ZM15.1772 8.05914C15.4449 8.05914 15.662 7.84208 15.662 7.57433C15.662 7.30657 15.4449 7.08951 15.1772 7.08951C14.9094 7.08951 14.6923 7.30657 14.6923 7.57433C14.6923 7.84208 14.9094 8.05914 15.1772 8.05914ZM17.9245 11.0005C17.9245 11.2682 17.7074 11.4853 17.4397 11.4853C17.1719 11.4853 16.9548 11.2682 16.9548 11.0005C16.9548 10.7327 17.1719 10.5156 17.4397 10.5156C17.7074 10.5156 17.9245 10.7327 17.9245 11.0005ZM19.379 10.8388C19.6468 10.8388 19.8639 10.6218 19.8639 10.354C19.8639 10.0863 19.6468 9.8692 19.379 9.8692C19.1113 9.8692 18.8942 10.0863 18.8942 10.354C18.8942 10.6218 19.1113 10.8388 19.379 10.8388ZM18.4417 9.51364C18.4417 9.78139 18.2246 9.99845 17.9568 9.99845C17.6891 9.99845 17.472 9.78139 17.472 9.51364C17.472 9.24588 17.6891 9.02882 17.9568 9.02882C18.2246 9.02882 18.4417 9.24588 18.4417 9.51364ZM7.81095 10.3229C8.07871 10.3229 8.29577 10.1059 8.29577 9.83813C8.29577 9.57038 8.07871 9.35332 7.81095 9.35332C7.5432 9.35332 7.32614 9.57038 7.32614 9.83813C7.32614 10.1059 7.5432 10.3229 7.81095 10.3229ZM6.35383 9.13359C6.35383 9.40134 6.13677 9.6184 5.86901 9.6184C5.60126 9.6184 5.3842 9.40134 5.3842 9.13359C5.3842 8.86583 5.60126 8.64877 5.86901 8.64877C6.13677 8.64877 6.35383 8.86583 6.35383 9.13359ZM5.86126 7.87295C6.12901 7.87295 6.34607 7.65589 6.34607 7.38813C6.34607 7.12038 6.12901 6.90332 5.86126 6.90332C5.5935 6.90332 5.37644 7.12038 5.37644 7.38813C5.37644 7.65589 5.5935 7.87295 5.86126 7.87295ZM8.28863 8.35131C8.28863 8.61907 8.07157 8.83613 7.80382 8.83613C7.53607 8.83613 7.31901 8.61907 7.31901 8.35131C7.31901 8.08356 7.53607 7.8665 7.80382 7.8665C8.07157 7.8665 8.28863 8.08356 8.28863 8.35131ZM6.96733 13.6832C7.23508 13.6832 7.45214 13.4662 7.45214 13.1984C7.45214 12.9307 7.23508 12.7136 6.96733 12.7136C6.69957 12.7136 6.48251 12.9307 6.48251 13.1984C6.48251 13.4662 6.69957 13.6832 6.96733 13.6832ZM6.15926 11.9055C6.15926 12.1732 5.9422 12.3903 5.67445 12.3903C5.40669 12.3903 5.18964 12.1732 5.18964 11.9055C5.18964 11.6377 5.40669 11.4207 5.67445 11.4207C5.9422 11.4207 6.15926 11.6377 6.15926 11.9055ZM26.6838 13.2953C26.9516 13.2953 27.1686 13.0783 27.1686 12.8105C27.1686 12.5428 26.9516 12.3257 26.6838 12.3257C26.416 12.3257 26.199 12.5428 26.199 12.8105C26.199 13.0783 26.416 13.2953 26.6838 13.2953ZM25.9404 11.259C25.9404 11.5268 25.7233 11.7438 25.4555 11.7438C25.1878 11.7438 24.9707 11.5268 24.9707 11.259C24.9707 10.9913 25.1878 10.7742 25.4555 10.7742C25.7233 10.7742 25.9404 10.9913 25.9404 11.259ZM18.9265 13.9418C19.1942 13.9418 19.4113 13.7247 19.4113 13.457C19.4113 13.1892 19.1942 12.9722 18.9265 12.9722C18.6587 12.9722 18.4417 13.1892 18.4417 13.457C18.4417 13.7247 18.6587 13.9418 18.9265 13.9418ZM21.3507 12.7458C21.3507 13.0136 21.1336 13.2306 20.8659 13.2306C20.5981 13.2306 20.381 13.0136 20.381 12.7458C20.381 12.4781 20.5981 12.261 20.8659 12.261C21.1336 12.261 21.3507 12.4781 21.3507 12.7458ZM10.846 12.6489C11.1137 12.6489 11.3308 12.4318 11.3308 12.1641C11.3308 11.8963 11.1137 11.6793 10.846 11.6793C10.5782 11.6793 10.3611 11.8963 10.3611 12.1641C10.3611 12.4318 10.5782 12.6489 10.846 12.6489ZM12.8823 9.70758C12.8823 9.97533 12.6652 10.1924 12.3975 10.1924C12.1297 10.1924 11.9127 9.97533 11.9127 9.70758C11.9127 9.43982 12.1297 9.22276 12.3975 9.22276C12.6652 9.22276 12.8823 9.43982 12.8823 9.70758ZM12.7853 13.9418C13.0531 13.9418 13.2701 13.7247 13.2701 13.457C13.2701 13.1892 13.0531 12.9722 12.7853 12.9722C12.5176 12.9722 12.3005 13.1892 12.3005 13.457C12.3005 13.7247 12.5176 13.9418 12.7853 13.9418ZM13.9166 11.5177C13.9166 11.7854 13.6995 12.0025 13.4318 12.0025C13.164 12.0025 12.947 11.7854 12.947 11.5177C12.947 11.2499 13.164 11.0328 13.4318 11.0328C13.6995 11.0328 13.9166 11.2499 13.9166 11.5177ZM14.7247 13.9418C14.9924 13.9418 15.2095 13.7247 15.2095 13.457C15.2095 13.1892 14.9924 12.9722 14.7247 12.9722C14.4569 12.9722 14.2398 13.1892 14.2398 13.457C14.2398 13.7247 14.4569 13.9418 14.7247 13.9418Z" fill="#1C1C1C"/>
</g>
<defs>
<clipPath id="clip0">
<rect width="32" height="32" fill="white"/>
</clipPath>
</defs>
</svg>
