<svg width="32" height="32" viewBox="0 0 32 32" fill="none" xmlns="http://www.w3.org/2000/svg">
<path fill-rule="evenodd" clip-rule="evenodd" d="M14.9677 7.22581H16C16 6.81502 16.1557 6.63332 16.3916 6.35811L16.3919 6.35786C16.6773 6.02499 17.0323 5.61119 17.0323 4.81804C17.0323 4.0247 16.6772 3.61038 16.3916 3.27747C16.1557 3.00227 16 2.82056 16 2.40927C16 1.99798 16.1557 1.81578 16.3921 1.54057L16.3926 1.54004C16.6776 1.20721 17.0323 0.792918 17.0323 0H16C16 0.41129 15.8443 0.593498 15.6079 0.8687L15.6074 0.869239C15.3225 1.20206 14.9677 1.61636 14.9677 2.40927C14.9677 3.20169 15.322 3.61546 15.6069 3.94817L15.6079 3.94934C15.8443 4.22505 16 4.40675 16 4.81804C16 5.2285 15.8445 5.41024 15.6089 5.68557L15.6084 5.68624L15.6082 5.68649C15.3227 6.01936 14.9677 6.43316 14.9677 7.22581ZM19.0968 9.80645H20.129C20.129 9.39566 20.2848 9.21396 20.5207 8.93876L20.5209 8.9385C20.8064 8.60563 21.1613 8.19183 21.1613 7.39869C21.1613 6.60534 20.8062 6.19103 20.5207 5.85811C20.2848 5.58291 20.129 5.40121 20.129 4.98992C20.129 4.57863 20.2848 4.39642 20.5212 4.12122L20.5216 4.12068C20.8066 3.78786 21.1613 3.37356 21.1613 2.58064H20.129C20.129 2.99193 19.9733 3.17414 19.7369 3.44934L19.7364 3.44988C19.4515 3.7827 19.0968 4.197 19.0968 4.98992C19.0968 5.78233 19.451 6.1961 19.7359 6.52882L19.7369 6.52999C19.9733 6.80519 20.129 6.9874 20.129 7.39869C20.129 7.80914 19.9735 7.99088 19.738 8.26621L19.7374 8.26688L19.7372 8.26713C19.4517 8.60001 19.0968 9.01381 19.0968 9.80645ZM24.7742 8.77419H23.7419C23.7419 7.98155 24.0969 7.56775 24.3824 7.23488L24.3826 7.23463L24.3831 7.23396C24.6187 6.95863 24.7742 6.77689 24.7742 6.36643C24.7742 5.95514 24.6185 5.77293 24.3821 5.49773L24.3811 5.49656C24.0962 5.16384 23.7419 4.75007 23.7419 3.95766C23.7419 3.16474 24.0966 2.75045 24.3816 2.41763L24.3821 2.41709C24.6185 2.14188 24.7742 1.95968 24.7742 1.54839H25.8065C25.8065 2.3413 25.4518 2.7556 25.1668 3.08842L25.1663 3.08896C24.9299 3.36416 24.7742 3.54637 24.7742 3.95766C24.7742 4.36895 24.9299 4.55065 25.1658 4.82586C25.4514 5.15877 25.8065 5.57308 25.8065 6.36643C25.8065 7.15958 25.4515 7.57338 25.1661 7.90625L25.1658 7.9065C24.9299 8.1817 24.7742 8.36341 24.7742 8.77419ZM29.1258 22.0582C30.0154 23.315 30.5658 24.3516 30.7964 24.816C31.4844 24.9735 32 25.5877 32 26.3226C32 27.1762 31.3052 27.871 30.4516 27.871H29.8044C29.0126 30.3206 26.7371 32 24.131 32H7.86895C5.26285 32 2.9874 30.3206 2.19556 27.871H1.54839C0.694808 27.871 0 27.1762 0 26.3226C0 25.5877 0.515625 24.9735 1.20363 24.816C1.48967 24.2399 2.26789 22.7845 3.57056 21.1273C3.27016 20.5126 3.09677 19.8256 3.09677 19.0968C3.09677 16.5358 5.18044 14.4516 7.74194 14.4516C8.85887 14.4516 9.88433 14.848 10.6865 15.507C11.1731 15.3075 11.6671 15.1328 12.1683 14.9894C11.5912 14.6555 11.0628 14.2497 10.6116 13.7676C9.41734 12.4929 8.76436 10.909 8.77419 9.30695L8.7742 9.30655C8.77823 8.66351 8.79049 6.70967 10.8387 6.70967C13.1807 6.70967 13.8048 8.28871 14.4086 9.81627L14.4088 9.81678L14.4125 9.8263C14.5807 10.2518 14.7546 10.6917 14.9703 11.1263C15.5401 12.2762 17.0076 13.4544 18.0892 14.2137L19.8528 12.4501C20.2261 12.0764 20.722 11.871 21.25 11.871C22.3392 11.871 23.2258 12.757 23.2258 13.8473V14.0779C23.2258 14.6323 22.9899 15.1328 22.6126 15.4839C22.8841 15.7369 23.0781 16.0685 23.1681 16.4403C23.8843 15.8435 24.8042 15.4839 25.8064 15.4839C28.0832 15.4839 29.9355 17.3362 29.9355 19.6129C29.9355 20.5285 29.6321 21.373 29.1258 22.0582ZM28.9032 19.6129C28.9032 17.905 27.5144 16.5161 25.8064 16.5161C24.0985 16.5161 22.7097 17.905 22.7097 19.6129C22.7097 21.3208 24.0985 22.7097 25.8064 22.7097C27.5144 22.7097 28.9032 21.3208 28.9032 19.6129ZM21.3042 16H21.0189H19.1663L20.6205 17.7444C20.7896 17.9478 21.0386 18.0645 21.3032 18.0645C21.7946 18.0645 22.1935 17.6656 22.1935 17.1746V16.8899C22.1935 16.3989 21.7946 16 21.3042 16ZM21.25 12.9032C21.0013 12.9032 20.7588 13.0038 20.5827 13.1794L18.9642 14.7974C19.0814 14.8712 19.1721 14.9274 19.2387 14.9677H21.3037C21.7946 14.9677 22.1935 14.5688 22.1935 14.0779V13.8473C22.1935 13.3264 21.7704 12.9032 21.25 12.9032ZM15.7424 13.663C15.1106 14.0345 14.4491 14.3463 13.7591 14.5879C14.4579 14.8314 15.2092 14.9677 15.9861 14.9682H17.3647C16.8579 14.6058 16.2838 14.1575 15.7424 13.663ZM13.2407 9.68245C12.6953 8.37676 12.2359 7.74193 10.8387 7.74193C10.2596 7.74193 9.81578 7.8576 9.80696 9.313C9.80393 9.82358 9.88382 10.3334 10.0393 10.8289C11.1794 10.7815 12.2989 10.3886 13.2135 9.70312L13.2407 9.68245ZM13.6376 10.6633C12.7014 11.3135 11.6041 11.7187 10.4718 11.8332C10.7102 12.2664 11.0071 12.6802 11.3637 13.0617C11.6681 13.3868 12.0149 13.6711 12.3901 13.9183L12.5207 13.8858C13.3853 13.6696 14.2112 13.3382 14.9879 12.9083C14.6033 12.4821 14.2689 12.0355 14.0449 11.5839C13.8901 11.2707 13.7606 10.9652 13.6376 10.6633ZM10.2704 18.5806H11.3135C11.0859 17.0018 9.83695 15.7528 8.25806 15.5252V16.5683C9.26764 16.7742 10.0645 17.5711 10.2704 18.5806ZM7.22581 21.6252C6.21623 21.4193 5.41935 20.6225 5.21346 19.6129H4.17036C4.39793 21.1918 5.64692 22.4408 7.22581 22.6683V21.6252ZM9.29032 19.0968C9.29032 18.2432 8.59551 17.5484 7.74194 17.5484C6.88836 17.5484 6.19355 18.2432 6.19355 19.0968C6.19355 19.9503 6.88836 20.6452 7.74194 20.6452C8.59551 20.6452 9.29032 19.9503 9.29032 19.0968ZM10.2704 19.6129C10.0645 20.6225 9.26764 21.4193 8.25806 21.6252V22.6683C9.83695 22.4408 11.0859 21.1918 11.3135 19.6129H10.2704ZM7.22581 16.5683V15.5252C5.64692 15.7528 4.39793 17.0018 4.17036 18.5806H5.21346C5.41935 17.5711 6.21623 16.7742 7.22581 16.5683ZM12.3871 19.0968C12.3871 21.6578 10.3034 23.7419 7.74194 23.7419C6.30192 23.7419 5.0131 23.0834 4.16053 22.0522C3.32863 23.1479 2.73765 24.1389 2.39113 24.7742H29.6089C29.3455 24.2916 28.941 23.6036 28.3989 22.8221C27.6898 23.3962 26.7881 23.7419 25.8064 23.7419C23.5297 23.7419 21.6774 21.8896 21.6774 19.6129C21.6774 19.4209 21.6951 19.2336 21.7208 19.0481C21.5867 19.0781 21.4478 19.0968 21.3042 19.0968C20.7324 19.0968 20.1941 18.845 19.8276 18.4052L17.8231 16H15.9866C15.2195 16 14.4708 15.8881 13.7631 15.6789C12.9801 15.8158 12.2054 16.028 11.4509 16.3117C12.0355 17.089 12.3871 18.0517 12.3871 19.0968ZM3.29284 27.871C4.03453 29.7223 5.82863 30.9677 7.86895 30.9677H24.131C26.1714 30.9677 27.9655 29.7223 28.7072 27.871H3.29284ZM1.54839 26.8387H30.4516C30.7364 26.8387 30.9677 26.6068 30.9677 26.3226C30.9677 26.0383 30.7364 25.8064 30.4516 25.8064H1.54839C1.26361 25.8064 1.03226 26.0383 1.03226 26.3226C1.03226 26.6068 1.26361 26.8387 1.54839 26.8387ZM27.871 19.6129C27.871 20.7515 26.9451 21.6774 25.8065 21.6774C24.6679 21.6774 23.7419 20.7515 23.7419 19.6129C23.7419 18.4743 24.6679 17.5484 25.8065 17.5484V18.5806C25.2372 18.5806 24.7742 19.0436 24.7742 19.6129C24.7742 20.1822 25.2372 20.6452 25.8065 20.6452C26.3758 20.6452 26.8387 20.1822 26.8387 19.6129H27.871ZM14.4516 17.0323H13.4194V18.0645H14.4516V17.0323ZM16 19.6129H17.0323V20.6452H16V19.6129ZM14.9677 22.7097H16V23.7419H14.9677V22.7097ZM19.0968 22.7097H20.129V23.7419H19.0968V22.7097ZM19.0968 20.6452H18.0645V21.6774H19.0968V20.6452ZM13.4194 20.6452H14.4516V21.6774H13.4194V20.6452Z" fill="#1C1C1C"/>
</svg>
