<svg width="24" height="24" viewBox="0 0 24 24" fill="none" xmlns="http://www.w3.org/2000/svg">
<circle cx="12" cy="12" r="12" fill="#FF6978"/>
<path d="M16.6666 7.33325L7.33325 16.6666" stroke="white" stroke-width="1.5" stroke-linecap="round" stroke-linejoin="round"/>
<path d="M8.33341 10.0001C9.25389 10.0001 10.0001 9.25389 10.0001 8.33341C10.0001 7.41294 9.25389 6.66675 8.33341 6.66675C7.41294 6.66675 6.66675 7.41294 6.66675 8.33341C6.66675 9.25389 7.41294 10.0001 8.33341 10.0001Z" stroke="white" stroke-width="1.5" stroke-linecap="round" stroke-linejoin="round"/>
<path d="M15.6667 17.3333C16.5871 17.3333 17.3333 16.5871 17.3333 15.6667C17.3333 14.7462 16.5871 14 15.6667 14C14.7462 14 14 14.7462 14 15.6667C14 16.5871 14.7462 17.3333 15.6667 17.3333Z" stroke="white" stroke-width="1.5" stroke-linecap="round" stroke-linejoin="round"/>
</svg>
