<svg width="314" height="324" viewBox="0 0 314 324" fill="none" xmlns="http://www.w3.org/2000/svg"><path fill-rule="evenodd" clip-rule="evenodd" d="M144.216 31.945a132.163 132.163 0 0125.388 0l-.384 3.982c-4.05-.392-8.156-.592-12.31-.592s-8.26.2-12.309.592l-.385-3.982zm-48.388 14.56a129.369 129.369 0 0123.476-9.664l1.152 3.83a125.377 125.377 0 00-22.75 9.366l-1.878-3.532zm98.688-9.664a129.31 129.31 0 0123.476 9.664l-1.878 3.532a125.31 125.31 0 00-22.75-9.366l1.152-3.83zM56.67 78.444a130.267 130.267 0 0118.015-17.887l2.528 3.1a126.268 126.268 0 00-17.461 17.337l-3.082-2.55zm182.465-17.887a130.228 130.228 0 0118.015 17.887l-3.081 2.55a126.263 126.263 0 00-17.462-17.337l2.528-3.1zM32.693 122.925a128.06 128.06 0 019.784-23.43l3.52 1.899a124.071 124.071 0 00-9.478 22.698l-3.826-1.167zm238.65-23.43a128.002 128.002 0 019.784 23.43l-3.825 1.167a124.162 124.162 0 00-9.479-22.698l3.52-1.9zm14.749 48.332a130.281 130.281 0 010 25.392l-3.981-.39c.397-4.048.6-8.153.6-12.306 0-4.153-.203-8.258-.6-12.306l3.981-.39zM27.109 160.523c0-4.283.21-8.518.62-12.696l3.98.39a126.367 126.367 0 000 24.612l-3.98.39c-.41-4.177-.62-8.412-.62-12.696zm15.368 61.029a128.114 128.114 0 01-9.784-23.43l3.826-1.168a124.071 124.071 0 009.479 22.698l-3.52 1.9zm238.65-23.43a128.056 128.056 0 01-9.784 23.43l-3.521-1.9a124.095 124.095 0 009.48-22.698l3.825 1.168zM74.685 260.489a130.29 130.29 0 01-18.015-17.886l3.081-2.551a126.277 126.277 0 0017.462 17.338l-2.528 3.099zm182.465-17.886a130.25 130.25 0 01-18.015 17.886l-2.528-3.099a126.272 126.272 0 0017.462-17.338l3.081 2.551zm-137.846 41.603a129.378 129.378 0 01-23.476-9.665l1.878-3.531a125.346 125.346 0 0022.75 9.365l-1.152 3.831zm98.688-9.665a129.34 129.34 0 01-23.476 9.665l-1.152-3.831a125.28 125.28 0 0022.75-9.365l1.878 3.531zm-61.082 15.17c-4.282 0-8.517-.206-12.694-.61l.385-3.981c4.049.391 8.155.591 12.309.591s8.26-.2 12.31-.591l.384 3.981c-4.177.404-8.411.61-12.694.61zM144.619 4.828a159.803 159.803 0 0124.582 0l-.308 3.988a155.785 155.785 0 00-23.966 0l-.308-3.988zM96.972 16.155a156.236 156.236 0 0123.379-7.537l.924 3.891a152.26 152.26 0 00-22.78 7.345l-1.523-3.7zm96.497-7.537a156.24 156.24 0 0123.379 7.537l-1.523 3.699a152.255 152.255 0 00-22.78-7.345l.924-3.891zM238.76 27.26a157.388 157.388 0 0119.912 14.387l-2.589 3.05a153.289 153.289 0 00-19.406-14.022l2.083-3.415zM55.148 41.647A157.376 157.376 0 0175.061 27.26l2.082 3.415a153.39 153.39 0 00-19.406 14.022l-2.589-3.05zm220.955 17.308a156.552 156.552 0 0114.523 19.814l-3.401 2.104a152.654 152.654 0 00-14.153-19.309l3.031-2.61zM23.193 78.769a156.716 156.716 0 0114.524-19.814l3.03 2.61a152.707 152.707 0 00-14.151 19.308l-3.402-2.104zm278.667 21.849a154.375 154.375 0 017.637 23.35l-3.888.937a150.527 150.527 0 00-7.44-22.745l3.691-1.542zM4.323 123.968a154.428 154.428 0 017.637-23.35l3.69 1.542a150.45 150.45 0 00-7.439 22.745l-3.888-.937zM0 160.523c0-4.136.162-8.236.48-12.293l3.987.313a153.554 153.554 0 000 23.961l-3.988.312A157.753 157.753 0 010 160.523zm313.341-12.292a157.747 157.747 0 010 24.585l-3.988-.312a153.706 153.706 0 000-23.961l3.988-.312zm-3.844 48.848a154.448 154.448 0 01-7.637 23.35l-3.691-1.542a150.527 150.527 0 007.44-22.745l3.888.937zM11.96 220.429a154.502 154.502 0 01-7.637-23.35l3.888-.937a150.449 150.449 0 007.44 22.745l-3.691 1.542zm278.666 21.849a156.608 156.608 0 01-14.523 19.814l-3.031-2.61a152.68 152.68 0 0014.153-19.308l3.401 2.104zm-252.91 19.814a156.773 156.773 0 01-14.522-19.814l3.402-2.104a152.732 152.732 0 0014.152 19.308l-3.031 2.61zm37.345 31.694a157.307 157.307 0 01-19.913-14.387l2.589-3.049a153.478 153.478 0 0019.406 14.021l-2.082 3.415zm183.611-14.387a157.32 157.32 0 01-19.912 14.387l-2.083-3.415a153.376 153.376 0 0019.406-14.021l2.589 3.049zm-138.321 33.03a156.366 156.366 0 01-23.379-7.537l1.523-3.699a152.236 152.236 0 0022.78 7.344l-.924 3.892zm96.497-7.537a156.37 156.37 0 01-23.379 7.537l-.924-3.892a152.23 152.23 0 0022.78-7.344l1.523 3.699zm-59.938 11.799c-4.136 0-8.235-.16-12.291-.473l.308-3.988a155.764 155.764 0 0023.966 0l.308 3.988c-4.056.313-8.155.473-12.291.473z" fill="#3AD29F"/><path d="M260.588 218.515a34.685 34.685 0 00-9.102-23.417 35.004 35.004 0 00-22.572-11.216 35.066 35.066 0 00-24.277 6.831 34.764 34.764 0 00-13.329 21.319l-107.4-2.9 1.18 18.363s-15.315 35.168 65.174 44.538v35.544h93.049v-59.098a34.837 34.837 0 0012.644-12.694 34.625 34.625 0 004.633-17.27z" fill="#fff"/><path d="M88.776 228.266s-14.665 33.677 62.416 42.662v34.054h89.112v-90.184l-152.673-4.12 1.145 17.588z" fill="#FFCCAE"/><path d="M133.312 87.73a16.426 16.426 0 01-10.237 7.191 16.496 16.496 0 01-12.354-2.082L62.875 61.46a16.352 16.352 0 01-7.226-10.187 16.284 16.284 0 012.093-12.295c2.323-3.645 6-6.227 10.229-7.184a16.496 16.496 0 0112.345 2.075l47.845 31.377a16.35 16.35 0 017.236 10.184 16.279 16.279 0 01-2.085 12.299z" fill="#fff"/><path d="M130.662 86.017a15.271 15.271 0 01-9.516 6.685 15.33 15.33 0 01-11.483-1.936l-44.49-29.19a15.2 15.2 0 01-6.717-9.469 15.136 15.136 0 011.945-11.428 15.27 15.27 0 019.515-6.685A15.334 15.334 0 0181.4 35.929l44.481 29.172a15.201 15.201 0 016.73 9.475 15.14 15.14 0 01-1.949 11.44zm92.725 166.95c18.483 0 33.465-14.911 33.465-33.304 0-18.394-14.982-33.305-33.465-33.305-18.482 0-33.464 14.911-33.464 33.305 0 18.393 14.982 33.304 33.464 33.304z" fill="#FFCCAE"/><path d="M217.364 0H89.167c-2.911 0-5.271 2.349-5.271 5.246v238.728c0 2.897 2.36 5.246 5.271 5.246h128.197c2.911 0 5.271-2.349 5.271-5.246V5.246c0-2.897-2.36-5.246-5.271-5.246z" fill="#fff"/><path d="M214.885 3.37H91.637c-3.241 0-5.87 2.616-5.87 5.842v230.805c0 3.226 2.629 5.841 5.87 5.841h123.248c3.242 0 5.87-2.615 5.87-5.841V9.212c0-3.226-2.628-5.842-5.87-5.842z" fill="#fff"/><path class="v-phone-screen" d="M187.173 9.451a10.871 10.871 0 01-3.671 6.618 10.975 10.975 0 01-7.116 2.645h-46.62a10.972 10.972 0 01-7.113-2.646 10.873 10.873 0 01-3.67-6.617h-24.7a5.147 5.147 0 00-3.626 1.492 5.1 5.1 0 00-1.503 3.609v220.116a5.077 5.077 0 001.5 3.61 5.138 5.138 0 003.625 1.495h117.964a5.145 5.145 0 003.627-1.492 5.115 5.115 0 001.112-1.656c.258-.619.39-1.282.39-1.952V14.556a5.09 5.09 0 00-1.499-3.61 5.126 5.126 0 00-3.626-1.495h-25.074z" fill="#D2D2D2"/><path d="M167.634 12.35h-28.362a.858.858 0 00-.86.857v.159c0 .473.385.856.86.856h28.362c.475 0 .86-.383.86-.856v-.159a.858.858 0 00-.86-.856zm7.25 1.872c.623 0 1.128-.502 1.128-1.122 0-.62-.505-1.122-1.128-1.122-.622 0-1.127.502-1.127 1.122 0 .62.505 1.122 1.127 1.122z" fill="#DBDBDB"/><path d="M245.019 225.538c-9.712 2.236-16.377-4.068-18.624-13.729l-22.315-82.467a18.01 18.01 0 012.306-13.601 18.166 18.166 0 0111.27-8.029 18.246 18.246 0 0113.667 2.295 18.094 18.094 0 018.068 11.216l18.21 84.595c2.246 9.665-2.874 17.485-12.582 19.72z" fill="#fff"/><path d="M236.887 123.241c-1.893-8.155-10.071-13.239-18.266-11.354-8.194 1.884-13.302 10.023-11.409 18.178l20.52 88.386c1.894 8.155 10.071 13.239 18.266 11.355 8.195-1.885 13.303-10.023 11.409-18.179l-20.52-88.386z" fill="#FFCCAE"/><path d="M256.711 293.839h-127.37v29.548h127.37v-29.548z" fill="#fff"/><path d="M253.268 297.265H132.783v23.125h120.485v-23.125z" fill="#4D8AF0"/><path d="M114.74 176.196a16.227 16.227 0 01-10.113 7.107 16.3 16.3 0 01-12.207-2.058l-32.088-20.663a16.152 16.152 0 01-7.14-10.065 16.089 16.089 0 012.067-12.148 16.23 16.23 0 0110.114-7.106 16.301 16.301 0 0112.206 2.057l32.088 20.663a16.16 16.16 0 017.141 10.065 16.09 16.09 0 01-2.068 12.148zm-8.055 43.737a16.38 16.38 0 01-10.205 7.172 16.45 16.45 0 01-12.317-2.076l-19.876-14.424a16.297 16.297 0 01-7.207-10.155 16.23 16.23 0 012.086-12.259 16.378 16.378 0 0110.205-7.172 16.446 16.446 0 0112.317 2.076l19.876 14.428a16.302 16.302 0 017.205 10.154c.959 4.198.21 8.605-2.084 12.256z" fill="#fff"/><path opacity=".5" d="M153.261 163.13c21.375 0 38.702-17.244 38.702-38.516s-17.327-38.516-38.702-38.516c-21.374 0-38.701 17.244-38.701 38.516s17.327 38.516 38.701 38.516z" fill="url(#paint0_linear)"/><path d="M153.261 160.865c20.117 0 36.425-16.23 36.425-36.251 0-20.02-16.308-36.25-36.425-36.25-20.117 0-36.425 16.23-36.425 36.25 0 20.021 16.308 36.251 36.425 36.251z" fill="#fff"/><path class="v-check" d="M137.452 119.775l13.658 12.462 19.351-28.32 6.833 5.666-26.184 33.985-19.351-21.523 5.693-2.27z" fill="#D2D2D2"/><path d="M105.08 218.858a15.27 15.27 0 01-9.515 6.685c-3.935.89-8.063.194-11.484-1.936l-18.538-13.43a15.2 15.2 0 01-6.717-9.469 15.137 15.137 0 011.945-11.429 15.27 15.27 0 019.516-6.685 15.332 15.332 0 0111.483 1.936l18.534 13.455a15.205 15.205 0 016.707 9.458c.894 3.909.2 8.012-1.931 11.415zm7.896-43.797a15.268 15.268 0 01-9.515 6.685c-3.935.89-8.064.194-11.484-1.935l-30.19-19.443a15.197 15.197 0 01-6.718-9.469 15.137 15.137 0 011.945-11.429 15.27 15.27 0 019.516-6.685 15.332 15.332 0 0111.483 1.936l30.191 19.442a15.201 15.201 0 016.717 9.47 15.136 15.136 0 01-1.945 11.428z" fill="#FFCCAE"/><path d="M123.037 132.665a16.308 16.308 0 01-10.161 7.138c-4.202.95-8.61.207-12.263-2.067l-40.663-26.35a16.234 16.234 0 01-7.172-10.112 16.165 16.165 0 012.077-12.204 16.307 16.307 0 0110.16-7.137c4.202-.95 8.61-.207 12.263 2.067l40.664 26.35a16.232 16.232 0 017.172 10.112 16.17 16.17 0 01-2.077 12.203z" fill="#fff"/><path d="M120.876 131.295a15.269 15.269 0 01-9.515 6.685c-3.934.89-8.063.194-11.484-1.936l-38.086-24.68a15.197 15.197 0 01-6.717-9.469 15.138 15.138 0 011.945-11.429 15.27 15.27 0 019.515-6.685 15.334 15.334 0 0111.484 1.936l38.082 24.68a15.2 15.2 0 016.72 9.468 15.14 15.14 0 01-1.944 11.43z" fill="#FFCCAE"/><defs><linearGradient id="paint0_linear" x1="27400.8" y1="29430" x2="27400.8" y2="15572.7" gradientUnits="userSpaceOnUse"><stop stop-color="gray" stop-opacity=".25"/><stop offset=".54" stop-color="gray" stop-opacity=".12"/><stop offset="1" stop-color="gray" stop-opacity=".1"/></linearGradient></defs></svg>