<svg width="32" height="32" viewBox="0 0 32 32" fill="none" xmlns="http://www.w3.org/2000/svg">
<path d="M31.0609 22.5545H28.9688V14.515C30.0192 14.3024 30.8125 13.3721 30.8125 12.2599C30.8125 10.9911 29.7803 9.95893 28.5116 9.95893H26.1413C25.8824 9.95893 25.6726 10.1688 25.6726 10.4277C25.6726 10.6866 25.8824 10.8964 26.1413 10.8964H28.5116C29.2634 10.8964 29.875 11.5081 29.875 12.2599C29.875 13.0116 29.2634 13.6232 28.5116 13.6232H24.1609C22.9521 13.6232 21.9688 14.6066 21.9688 15.8154V19.2951C21.9688 19.999 21.3961 20.5717 20.6921 20.5717C19.9882 20.5717 19.4155 19.999 19.4155 19.2951V15.8154C19.4155 14.6066 18.4321 13.6232 17.2234 13.6232C16.0146 13.6232 15.0312 14.6067 15.0312 15.8154V17.2157C15.0312 17.8533 14.5126 18.372 13.875 18.372C13.2374 18.372 12.7188 17.8533 12.7188 17.2157V15.8154C12.7188 14.6066 11.7354 13.6232 10.5266 13.6232H3.48844C2.73662 13.6232 2.125 13.0116 2.125 12.2599C2.125 11.5081 2.73662 10.8964 3.48844 10.8964H23.9837C24.2426 10.8964 24.4524 10.6866 24.4524 10.4277C24.4524 10.1688 24.2426 9.95893 23.9837 9.95893H21.5929C21.5936 9.9583 21.5943 9.95768 21.5949 9.95705C23.0263 8.52568 23.5321 6.31249 22.9481 4.03674C22.8499 3.65412 22.5512 3.3553 22.1686 3.25687C19.893 2.67168 17.6794 3.17743 16.2474 4.60955C15.8448 5.01218 15.5159 5.47012 15.2633 5.97099C14.5591 5.35993 13.6567 5.01787 12.7099 5.01787C12.461 5.01787 12.2178 5.0423 11.9817 5.08712C11.6801 4.30418 11.1409 3.44262 10.1764 2.84955C9.95575 2.71393 9.66713 2.7828 9.53156 3.0033C9.39594 3.22387 9.46481 3.51255 9.68531 3.64812C10.412 4.09493 10.8349 4.75824 11.0817 5.37549C9.74294 5.99355 8.81112 7.34799 8.81112 8.91674C8.81112 9.27312 8.85919 9.62168 8.95275 9.95893H3.48844C2.21969 9.95893 1.1875 10.9911 1.1875 12.2599C1.1875 13.3721 1.98081 14.3024 3.03125 14.515V22.5545H0.939125C0.421313 22.5545 0 22.9757 0 23.4936V24.7582C0 25.8813 0.913688 26.7949 2.03669 26.7949H2.58363V28.0759C2.58363 28.7068 3.09688 29.22 3.72775 29.22H28.2722C28.9031 29.22 29.4164 28.7068 29.4164 28.0759V26.7949H29.9633C31.0864 26.7949 32 25.8812 32 24.7582V23.4936C32 22.9757 31.5787 22.5545 31.0609 22.5545ZM16.9102 5.27243C18.1234 4.05937 19.9549 3.65574 21.9351 4.1648C21.9859 4.1778 22.0271 4.21905 22.0401 4.26974C22.5483 6.2503 22.1444 8.08161 20.9319 9.29411C20.6786 9.54749 20.3934 9.76887 20.0844 9.95205C20.0809 9.95418 20.0776 9.95668 20.0741 9.95886H16.9084L17.9137 8.95349C18.2564 9.03768 18.6056 9.08061 18.9583 9.08061C19.1211 9.08061 19.2846 9.07161 19.4484 9.05355C19.7057 9.02524 19.8914 8.79368 19.8631 8.53637C19.8348 8.27899 19.6031 8.09318 19.3459 8.12168C19.1401 8.1443 18.9351 8.14868 18.732 8.1353L19.2344 7.63293C19.5771 7.71712 19.9263 7.76005 20.279 7.76005C20.4417 7.76005 20.6052 7.75105 20.7691 7.73299C21.0264 7.70468 21.2121 7.47312 21.1838 7.2158C21.1555 6.95843 20.9239 6.77249 20.6666 6.80112C20.4608 6.82374 20.2558 6.82805 20.0527 6.81468L20.6924 6.17493C20.8755 5.99187 20.8755 5.69505 20.6924 5.51205C20.5094 5.32899 20.2126 5.32899 20.0296 5.51205L19.3899 6.15174C19.3765 5.94862 19.3808 5.74368 19.4034 5.5378C19.4317 5.28049 19.2461 5.04893 18.9888 5.02062C18.7319 4.99237 18.4999 5.17799 18.4716 5.4353C18.4145 5.95412 18.4491 6.46874 18.5721 6.96943L18.0693 7.4723C18.0559 7.26918 18.0602 7.06424 18.0828 6.85837C18.1111 6.60099 17.9254 6.36949 17.6681 6.34118C17.4109 6.31293 17.1793 6.49862 17.1509 6.75587C17.0939 7.27474 17.1285 7.78937 17.2515 8.29005L15.7013 9.84024C15.3627 8.03755 15.795 6.3878 16.9102 5.27243ZM9.74856 8.91668C9.74856 7.77518 10.3981 6.78318 11.3467 6.28905C11.423 6.69024 11.4271 6.96699 11.4271 6.97587C11.4276 7.23424 11.6373 7.44349 11.8958 7.44349C12.1547 7.44349 12.3646 7.23362 12.3646 6.97474C12.3646 6.93274 12.361 6.53868 12.247 5.99168C12.3979 5.96787 12.5524 5.95524 12.7099 5.95524C13.5434 5.95524 14.3316 6.30437 14.8926 6.9163C14.6211 7.84768 14.5751 8.8818 14.7699 9.9588H9.93719C9.81206 9.6268 9.74856 9.27699 9.74856 8.91668ZM24.1609 14.5607H28.0312V16.4296H22.9062V15.8154C22.9062 15.1236 23.4691 14.5607 24.1609 14.5607ZM17.2234 14.5607C17.9152 14.5607 18.478 15.1236 18.478 15.8154V16.4296H15.9688V15.8154C15.9688 15.1236 16.5316 14.5607 17.2234 14.5607ZM11.7812 15.8154V16.4296H3.96875V14.5607H10.5266C11.2184 14.5607 11.7812 15.1236 11.7812 15.8154ZM31.0625 24.7582C31.0625 25.3643 30.5694 25.8574 29.9633 25.8574H25.0788C24.8199 25.8574 24.6101 26.0673 24.6101 26.3262C24.6101 26.585 24.8199 26.7949 25.0788 26.7949H28.4789V28.0759C28.4789 28.1899 28.3862 28.2825 28.2722 28.2825H3.72775C3.61381 28.2825 3.52113 28.1899 3.52113 28.0759V26.7949H22.9212C23.1801 26.7949 23.3899 26.585 23.3899 26.3262C23.3899 26.0673 23.1801 25.8574 22.9212 25.8574H2.03669C1.43063 25.8574 0.9375 25.3643 0.9375 24.7582L0.939125 23.492H12.7962C13.0551 23.492 13.2649 23.2821 13.2649 23.0232C13.2649 22.7644 13.0551 22.5545 12.7962 22.5545H3.96875V17.3672H11.7873C11.8653 18.4512 12.7714 19.3096 13.875 19.3096C14.9786 19.3096 15.8847 18.4512 15.9627 17.3672H18.478V19.2951C18.478 20.516 19.4713 21.5092 20.6921 21.5092C21.913 21.5092 22.9062 20.516 22.9062 19.2951V17.3672H28.0312V22.5545H14.9538C14.6949 22.5545 14.4851 22.7644 14.4851 23.0232C14.4851 23.2821 14.6949 23.492 14.9538 23.492L31.0625 23.4936V24.7582Z" fill="#1C1C1C"/>
<path d="M5.83725 18.372H5.83075C5.57187 18.372 5.362 18.5819 5.362 18.8407C5.362 19.0996 5.57187 19.3095 5.83075 19.3095H5.83725C6.09612 19.3095 6.306 19.0996 6.306 18.8407C6.306 18.5819 6.09612 18.372 5.83725 18.372Z" fill="#1C1C1C"/>
<path d="M7.22794 19.492H7.22144C6.96256 19.492 6.75269 19.7019 6.75269 19.9608C6.75269 20.2197 6.96256 20.4295 7.22144 20.4295H7.22794C7.48681 20.4295 7.69669 20.2197 7.69669 19.9608C7.69669 19.7019 7.48687 19.492 7.22794 19.492Z" fill="#1C1C1C"/>
<path d="M25.5 19.0251H25.5065C25.7654 19.0251 25.9753 18.8152 25.9753 18.5563C25.9753 18.2974 25.7654 18.0876 25.5065 18.0876H25.5C25.2411 18.0876 25.0312 18.2974 25.0312 18.5563C25.0312 18.8152 25.2411 19.0251 25.5 19.0251Z" fill="#1C1C1C"/>
</svg>
