<svg width="16" height="16" viewBox="0 0 16 16" fill="none" xmlns="http://www.w3.org/2000/svg">
<path d="M11.375 10C11.8582 10 12.25 9.60825 12.25 9.125C12.25 8.64175 11.8582 8.25 11.375 8.25C10.8918 8.25 10.5 8.64175 10.5 9.125C10.5 9.60825 10.8918 10 11.375 10Z" fill="#1C1C1C"/>
<path d="M13.25 4.0225V3.25C13.25 2.85604 13.0951 2.47788 12.8186 2.19722C12.5422 1.91655 12.1664 1.75591 11.7725 1.75H3.955C1.75 1.75 1.5275 3.5575 1.5 4.47C1.5 4.47 1.5 4.49 1.5 4.5V12.5C1.5 12.8978 1.65804 13.2794 1.93934 13.5607C2.22064 13.842 2.60218 14 3 14H13C13.3978 14 13.7794 13.842 14.0607 13.5607C14.342 13.2794 14.5 12.8978 14.5 12.5V5.5C14.4996 5.14578 14.3739 4.80312 14.1452 4.53269C13.9164 4.26227 13.5993 4.08154 13.25 4.0225ZM3.955 2.75H11.7725C11.9012 2.7558 12.0226 2.81102 12.1116 2.90417C12.2006 2.99732 12.2501 3.1212 12.25 3.25V4H2.545C2.6725 3.0925 3.0875 2.75 3.955 2.75ZM13.5 12.5C13.5 12.6326 13.4473 12.7598 13.3536 12.8536C13.2598 12.9473 13.1326 13 13 13H3C2.86739 13 2.74021 12.9473 2.64645 12.8536C2.55268 12.7598 2.5 12.6326 2.5 12.5V5H13C13.1326 5 13.2598 5.05268 13.3536 5.14645C13.4473 5.24021 13.5 5.36739 13.5 5.5V12.5Z" fill="#1C1C1C"/>
</svg>
