<svg width="32" height="32" viewBox="0 0 32 32" fill="none" xmlns="http://www.w3.org/2000/svg">
<path d="M30.7797 13.715C30.6677 13.3087 30.4517 12.9387 30.1531 12.6413C29.8544 12.344 29.4835 12.1296 29.0767 12.0193C28.4612 11.8443 27.8211 11.7719 27.182 11.8048C27.9522 10.8878 28.407 9.97975 28.1275 9.261C27.8367 8.51525 27.335 8.08325 26.751 8.07575H26.735C26.1315 8.07575 25.5835 8.524 25.2665 9.278C25.2507 9.3155 25.2347 9.358 25.2187 9.3985C25.1231 9.08801 25.0055 8.78474 24.8667 8.491C24.6872 8.11044 24.4116 7.78323 24.067 7.54163C23.7225 7.30004 23.321 7.15239 22.902 7.11325C22.7125 7.09321 22.5211 7.12675 22.3498 7.21006C22.1784 7.29337 22.0338 7.4231 21.9325 7.5845C21.6862 8.0195 21.8075 8.61625 22.2942 9.35775C22.962 10.3014 23.348 11.4154 23.4072 12.57C22.847 12.161 22.2347 11.8565 21.4772 11.9218C21.0291 11.9709 20.5966 12.1148 20.2082 12.3438C20.4533 11.8268 20.5576 11.2542 20.5105 10.684C20.4682 10.3033 20.3464 9.93573 20.153 9.60509C19.9596 9.27446 19.6989 8.98814 19.3878 8.76469C19.0767 8.54123 18.7221 8.38562 18.347 8.30794C17.972 8.23026 17.5848 8.23224 17.2105 8.31375C16.4905 8.49537 15.8527 8.91422 15.4 9.50275C15.0715 9.41106 14.7218 9.43209 14.4067 9.5625C14.2515 9.6248 14.1042 9.70537 13.968 9.8025C13.821 9.64144 13.6418 9.513 13.4421 9.42549C13.2423 9.33798 13.0264 9.29335 12.8084 9.29446C12.5903 9.29558 12.3749 9.34243 12.176 9.43198C11.9772 9.52153 11.7994 9.65179 11.654 9.81436C11.5086 9.97692 11.399 10.1682 11.3322 10.3757C11.2653 10.5833 11.2428 10.8026 11.2659 11.0194C11.2891 11.2363 11.3575 11.4458 11.4667 11.6346C11.576 11.8233 11.7235 11.9871 11.9 12.1153C11.8071 12.3878 11.7766 12.6778 11.8105 12.9638C11.2792 12.5663 10.6592 12.3042 10.004 12.2C9.90798 11.4843 9.49623 10.7765 8.91223 10.5398C8.7422 9.96007 8.36316 9.46407 7.84848 9.14775C7.54518 8.96086 7.18735 8.88266 6.83373 8.926C6.46867 8.2457 5.884 7.70906 5.17498 7.4035C4.80718 7.25021 4.41008 7.17995 4.01201 7.19771C3.61394 7.21547 3.22468 7.32082 2.87198 7.50625C2.51188 7.6774 2.194 7.92592 1.94102 8.23409C1.68804 8.54225 1.5062 8.90246 1.40848 9.289C1.22773 10.0397 1.3066 10.8294 1.63223 11.5295C1.38621 11.7845 1.23384 12.1153 1.19998 12.468C1.14317 13.0711 1.31245 13.6739 1.67498 14.1593C1.51823 14.747 1.82348 15.4445 2.23623 15.9093C2.66123 16.3885 3.17148 16.6235 3.63923 16.5745C3.80995 16.8021 4.02197 16.9956 4.26423 17.1448H4.24998C4.18937 17.1448 4.12942 17.1574 4.07394 17.1818C4.01845 17.2062 3.96864 17.2418 3.92765 17.2865C3.88667 17.3311 3.8554 17.3838 3.83583 17.4412C3.81627 17.4986 3.80883 17.5594 3.81398 17.6198C4.03898 20.291 5.13098 24.9615 9.82573 27.1948C9.03574 28.0683 8.58723 29.1975 8.56248 30.375C8.56245 30.4325 8.57374 30.4894 8.59572 30.5425C8.61769 30.5956 8.64992 30.6438 8.69055 30.6844C8.73118 30.7251 8.77943 30.7573 8.83252 30.7793C8.88562 30.8012 8.94252 30.8125 8.99998 30.8125H23C23.0574 30.8125 23.1144 30.8012 23.1674 30.7793C23.2205 30.7573 23.2688 30.7251 23.3094 30.6844C23.35 30.6438 23.3823 30.5956 23.4042 30.5425C23.4262 30.4894 23.4375 30.4325 23.4375 30.375C23.4129 29.1976 22.9646 28.0686 22.175 27.195C26.8697 24.961 27.9622 20.2905 28.1867 17.62C28.1919 17.5595 28.1844 17.4987 28.1648 17.4413C28.1452 17.3838 28.1139 17.3311 28.0728 17.2865C28.0317 17.2418 27.9818 17.2062 27.9263 17.1818C27.8707 17.1575 27.8107 17.1449 27.75 17.145H25.95C26.4312 15.74 25.9865 14.8778 25.2987 14.1758C26.3237 14.0085 27.4542 14.1813 28.6737 14.7045C29.0211 14.8688 29.3976 14.9623 29.7815 14.9795C30.0354 14.9895 30.2845 14.9086 30.484 14.7513C30.626 14.624 30.7292 14.4592 30.7815 14.2758C30.8339 14.0925 30.8332 13.898 30.7797 13.715ZM25.725 10.5895C25.857 10.1988 25.9707 9.86125 26.0732 9.617C26.2667 9.156 26.545 8.95075 26.736 8.95075H26.7395C26.9457 8.95325 27.16 9.18825 27.3122 9.5785C27.4947 10.0473 26.7872 11.2185 24.8572 12.8638C25.1876 12.122 25.4773 11.3628 25.725 10.5895V10.5895ZM22.6932 8.01625C22.7856 7.97645 22.8891 7.97122 22.985 8.0015C23.2191 8.05347 23.4385 8.15755 23.6269 8.30601C23.8153 8.45447 23.9677 8.64349 24.073 8.859C24.459 9.62 24.6219 10.4746 24.543 11.3243C24.4545 11.5658 24.359 11.8113 24.2557 12.0573C24.1033 10.9148 23.6815 9.82488 23.025 8.8775C22.6555 8.313 22.67 8.054 22.6932 8.01625ZM14.725 10.3775C14.8183 10.3328 14.9216 10.3131 15.0249 10.3203C15.1281 10.3276 15.2276 10.3616 15.3137 10.419C15.3647 10.4537 15.4223 10.4773 15.483 10.4882C15.5437 10.4991 15.606 10.4971 15.6658 10.4822C15.7256 10.4674 15.7816 10.4401 15.8302 10.4021C15.8787 10.3641 15.9187 10.3163 15.9475 10.2618C16.2722 9.7176 16.7986 9.32363 17.4122 9.1655C17.6647 9.11268 17.9254 9.11295 18.1778 9.1663C18.4301 9.21964 18.6686 9.32489 18.8781 9.47535C19.0876 9.62582 19.2636 9.81822 19.3947 10.0403C19.5259 10.2624 19.6094 10.5094 19.64 10.7655C19.6862 11.3961 19.4815 12.0195 19.0705 12.5C19.0294 12.5429 18.9976 12.5938 18.977 12.6494C18.9563 12.7051 18.9473 12.7644 18.9505 12.8237C18.9537 12.883 18.969 12.941 18.9955 12.9942C19.022 13.0473 19.0591 13.0945 19.1045 13.1328C18.475 13.6893 17.8885 14.2926 17.35 14.9375C17.2685 14.8751 17.1674 14.8439 17.065 14.8495C17.0517 14.8495 16.234 14.8995 15.4247 15.039L16.3705 13.7205C16.7975 13.5774 17.2469 13.5124 17.697 13.5285C17.7539 13.5358 17.8118 13.5319 17.8672 13.5169C17.9227 13.5018 17.9746 13.4761 18.0201 13.441C18.0655 13.4059 18.1036 13.3622 18.1322 13.3124C18.1608 13.2625 18.1793 13.2076 18.1866 13.1506C18.1939 13.0937 18.19 13.0358 18.175 12.9804C18.16 12.925 18.1342 12.873 18.0991 12.8276C18.064 12.7821 18.0203 12.744 17.9705 12.7154C17.9207 12.6868 17.8657 12.6683 17.8087 12.661C17.5801 12.6409 17.35 12.6448 17.1222 12.6725L17.965 11.4975C17.9985 11.4508 18.0224 11.398 18.0355 11.3421C18.0485 11.2862 18.0505 11.2282 18.0411 11.1716C18.0318 11.1149 18.0114 11.0606 17.9811 11.0118C17.9508 10.9631 17.9112 10.9207 17.8645 10.8873C17.8178 10.8538 17.765 10.8298 17.7091 10.8168C17.6532 10.8037 17.5952 10.8018 17.5385 10.8111C17.4819 10.8204 17.4276 10.8408 17.3788 10.8712C17.33 10.9015 17.2877 10.9411 17.2542 10.9878L16.4102 12.1643C16.3632 11.9387 16.2931 11.7187 16.201 11.5075C16.15 11.4032 16.0597 11.3235 15.95 11.2858C15.8402 11.2481 15.72 11.2555 15.6157 11.3065C15.5115 11.3575 15.4317 11.4477 15.394 11.5575C15.3563 11.6673 15.3638 11.7875 15.4147 11.8918C15.5751 12.3138 15.6575 12.7615 15.658 13.213L14.713 14.5308C14.5855 13.7183 14.3695 12.926 14.366 12.9135C14.3328 12.8041 14.2582 12.7121 14.158 12.6571C14.0579 12.602 13.9401 12.5883 13.83 12.619C13.7199 12.6496 13.6262 12.7221 13.5689 12.821C13.5115 12.9198 13.4951 13.0372 13.5232 13.148C13.6865 13.735 13.9662 15.0545 13.9252 15.6288L13.0157 16.8968C13.011 16.4769 12.9522 16.0593 12.8407 15.6545C12.673 14.9158 12.5157 14.2178 12.8962 13.6848C12.9637 13.5906 12.9911 13.4735 12.9724 13.3592C12.9536 13.2449 12.8903 13.1427 12.7962 13.075C12.619 12.9475 12.6537 12.583 12.7615 12.2983C12.9327 11.8443 13.2652 11.5483 13.4575 11.568C13.5634 11.5795 13.6699 11.5516 13.7565 11.4895C13.8432 11.4274 13.9039 11.3355 13.927 11.2315C13.9789 11.0559 14.0715 10.8949 14.1972 10.7618C14.2007 10.7578 14.2045 10.7538 14.2077 10.7498C14.3498 10.5881 14.5266 10.4608 14.725 10.3775ZM13.915 17.145L14.64 16.135C15.301 15.9312 15.9834 15.8045 16.6735 15.7573C16.3255 16.192 15.9715 16.6573 15.6147 17.145H13.915ZM12.8175 10.165C12.9205 10.1653 13.0222 10.1886 13.115 10.2333C13.2078 10.2781 13.2894 10.3431 13.3537 10.4235C13.2882 10.5179 13.2308 10.6177 13.182 10.7218C12.8353 10.8213 12.5317 11.0338 12.3195 11.3255C12.2267 11.2281 12.1646 11.1057 12.1408 10.9733C12.117 10.841 12.1325 10.7045 12.1856 10.5809C12.2386 10.4573 12.3268 10.352 12.4391 10.2781C12.5514 10.2042 12.683 10.1648 12.8175 10.165V10.165ZM11.812 14.15C11.7716 14.7216 11.8308 15.2959 11.987 15.8473C12.097 16.2122 12.1463 16.5928 12.133 16.9738C12.1247 17.0301 12.1204 17.087 12.12 17.144H10.866L10.4092 16.6873H11.3305C11.4465 16.6873 11.5578 16.6412 11.6398 16.5591C11.7219 16.4771 11.768 16.3658 11.768 16.2498C11.768 16.1337 11.7219 16.0224 11.6398 15.9404C11.5578 15.8583 11.4465 15.8123 11.3305 15.8123H10.409L11.0607 15.1605C11.1404 15.078 11.1846 14.9675 11.1836 14.8528C11.1826 14.7381 11.1366 14.6283 11.0555 14.5472C10.9744 14.4661 10.8647 14.42 10.75 14.419C10.6353 14.418 10.5248 14.4621 10.4422 14.5418L9.79023 15.1935V14.273C9.79023 14.157 9.74414 14.0457 9.66209 13.9636C9.58005 13.8816 9.46877 13.8355 9.35273 13.8355C9.2367 13.8355 9.12542 13.8816 9.04338 13.9636C8.96133 14.0457 8.91523 14.157 8.91523 14.273V15.1943L8.26373 14.5428C8.18168 14.4607 8.0704 14.4146 7.95436 14.4146C7.83832 14.4146 7.72704 14.4607 7.64498 14.5428C7.56293 14.6248 7.51684 14.7361 7.51684 14.8521C7.51684 14.9682 7.56293 15.0795 7.64498 15.1615L8.29673 15.8133H7.37498C7.25895 15.8133 7.14767 15.8593 7.06562 15.9414C6.98358 16.0234 6.93748 16.1347 6.93748 16.2508C6.93748 16.3668 6.98358 16.4781 7.06562 16.5601C7.14767 16.6422 7.25895 16.6883 7.37498 16.6883H8.29673L7.83973 17.145H6.24748C6.04809 16.4559 6.0836 15.7201 6.34842 15.0534C6.61324 14.3868 7.09233 13.8272 7.71021 13.4627C8.32808 13.0983 9.04964 12.9498 9.76121 13.0406C10.4728 13.1314 11.1339 13.4564 11.6405 13.9643C11.7027 14.0265 11.7587 14.0885 11.812 14.15ZM3.97848 15.6523C3.92382 15.6342 3.86614 15.6272 3.80875 15.6315C3.75135 15.6358 3.69536 15.6513 3.64398 15.6773C3.42998 15.7853 3.11198 15.5793 2.89023 15.3295C2.54398 14.9395 2.43598 14.4885 2.55248 14.312C2.6113 14.2235 2.63588 14.1167 2.62161 14.0114C2.60735 13.9061 2.55522 13.8096 2.47498 13.74C2.32885 13.5842 2.21725 13.3994 2.14751 13.1975C2.07776 12.9956 2.05142 12.7813 2.07023 12.5685C2.07487 12.4582 2.10812 12.3509 2.16672 12.2573C2.22532 12.1637 2.30726 12.0869 2.40448 12.0345C2.45902 12.0056 2.50682 11.9655 2.54476 11.9169C2.5827 11.8682 2.6099 11.8121 2.62459 11.7521C2.63928 11.6922 2.64112 11.6298 2.62998 11.5692C2.61884 11.5085 2.59499 11.4508 2.55998 11.4C2.21264 10.834 2.1031 10.1537 2.25523 9.50725C2.32175 9.242 2.44675 8.99498 2.62108 8.78428C2.7954 8.57358 3.01463 8.40453 3.26273 8.2895C3.50356 8.16024 3.77023 8.08642 4.04325 8.07344C4.31627 8.06046 4.58873 8.10866 4.84073 8.2145C5.44902 8.47992 5.92778 8.97495 6.17273 9.59175C6.19246 9.65008 6.22428 9.70358 6.26611 9.74877C6.30794 9.79395 6.35884 9.8298 6.41547 9.85396C6.47211 9.87812 6.5332 9.89006 6.59477 9.88899C6.65633 9.88792 6.71697 9.87387 6.77273 9.84775C6.87381 9.80163 6.98512 9.78251 7.0958 9.79223C7.20648 9.80196 7.31275 9.84021 7.40423 9.90325C7.58509 10.0158 7.74011 10.1653 7.85915 10.3419C7.97819 10.5186 8.05856 10.7184 8.09498 10.9283C8.10226 11.0343 8.14788 11.134 8.22333 11.2089C8.29878 11.2837 8.3989 11.3286 8.50498 11.335C8.72798 11.3485 9.00173 11.7193 9.10648 12.1583C8.10297 12.2145 7.15533 12.6384 6.44448 13.349C6.40748 13.386 6.37373 13.424 6.33823 13.4635L5.94998 12.6833C6.02469 12.2138 6.18448 11.762 6.42148 11.35C6.45456 11.303 6.47806 11.25 6.49064 11.1939C6.50322 11.1379 6.50464 11.0799 6.4948 11.0233C6.48497 10.9667 6.46409 10.9125 6.43334 10.864C6.40259 10.8155 6.36259 10.7735 6.31561 10.7404C6.26863 10.7073 6.21559 10.6838 6.15953 10.6712C6.10347 10.6586 6.04548 10.6572 5.98887 10.6671C5.93226 10.6769 5.87814 10.6978 5.8296 10.7285C5.78107 10.7593 5.73906 10.7993 5.70598 10.8463C5.57039 11.0588 5.45768 11.285 5.36973 11.5213L4.67498 10.1368C4.62307 10.033 4.53204 9.95403 4.42194 9.91734C4.31183 9.88066 4.19166 9.88921 4.08786 9.94113C3.98406 9.99304 3.90514 10.0841 3.86845 10.1942C3.83176 10.3043 3.84032 10.4245 3.89223 10.5283L4.58548 11.9138C4.34395 11.8426 4.09557 11.7971 3.84448 11.778H3.83098C3.71495 11.7763 3.60299 11.8207 3.51972 11.9015C3.43645 11.9824 3.38871 12.093 3.38698 12.209C3.38526 12.325 3.4297 12.437 3.51053 12.5203C3.59136 12.6035 3.70195 12.6513 3.81798 12.653C4.28958 12.7108 4.74676 12.8538 5.16723 13.075L5.75998 14.2593C5.71115 14.3469 5.6659 14.4361 5.62423 14.5268C5.01098 14.3323 4.43073 14.1923 4.24573 14.1518C4.13222 14.1277 4.0138 14.1497 3.91651 14.2129C3.81923 14.2762 3.75105 14.3755 3.72698 14.489C3.70292 14.6025 3.72493 14.7209 3.78817 14.8182C3.85142 14.9155 3.95072 14.9837 4.06423 15.0078C4.27698 15.0528 4.80798 15.1853 5.34398 15.3545C5.24888 15.7826 5.2228 16.2232 5.26673 16.6595C5.05069 16.6033 4.84795 16.5047 4.67028 16.3695C4.49262 16.2343 4.34355 16.0652 4.23173 15.872C4.17976 15.7681 4.08868 15.6891 3.97848 15.6523V15.6523ZM9.46573 29.9375C9.61923 28.7503 10.3532 27.794 10.7375 27.5518H10.742C10.7462 27.5518 10.7502 27.5518 10.7545 27.5518H21.2575H21.2625C21.647 27.7948 22.3802 28.7518 22.5335 29.9368L9.46573 29.9375ZM21.1777 26.6768H10.8222C6.27498 24.8703 5.04373 20.669 4.73373 18.02H27.2662C26.9562 20.669 25.725 24.8703 21.1777 26.6768ZM16.703 17.145C17.0845 16.639 17.4612 16.1625 17.828 15.726C19.4155 13.8318 20.6337 12.8725 21.553 12.7935C22.276 12.732 22.84 13.207 23.553 13.81L23.678 13.9138C23.6837 13.9193 23.6902 13.9243 23.6965 13.9295L23.9237 14.12L24.034 14.212L24.0437 14.2203L24.1107 14.276C24.1218 14.2865 24.1335 14.2964 24.1457 14.3055C25.0977 15.107 25.6367 15.6973 25.0187 17.145H16.703ZM29.928 14.0763C29.8947 14.107 29.6415 14.1665 29.0197 13.9013C27.9966 13.4334 26.8792 13.2084 25.7547 13.2438C25.8797 13.1328 26.0029 13.0206 26.1242 12.9073C27.0072 12.6092 27.9614 12.5948 28.853 12.866C29.084 12.9321 29.2972 13.0493 29.4768 13.2089C29.6564 13.3686 29.7978 13.5666 29.8905 13.7883C29.9363 13.8769 29.9495 13.9788 29.928 14.0763V14.0763Z" fill="#1C1C1C"/>
<path d="M24.7477 21.48C24.4468 22.093 24.0695 22.6654 23.625 23.1837C23.5874 23.2272 23.5587 23.2776 23.5407 23.3322C23.5226 23.3867 23.5154 23.4443 23.5196 23.5016C23.5238 23.5589 23.5392 23.6148 23.5649 23.6662C23.5907 23.7175 23.6264 23.7633 23.6698 23.8009C23.7133 23.8384 23.7637 23.8671 23.8183 23.8852C23.8728 23.9032 23.9304 23.9104 23.9877 23.9062C24.045 23.9021 24.1009 23.8866 24.1523 23.8609C24.2036 23.8351 24.2494 23.7994 24.287 23.756C24.7796 23.1817 25.1976 22.5475 25.531 21.8682C25.5824 21.7642 25.5905 21.6441 25.5534 21.5341C25.5162 21.4242 25.437 21.3335 25.333 21.282C25.229 21.2305 25.1088 21.2224 24.9988 21.2596C24.8889 21.2967 24.7982 21.376 24.7467 21.48H24.7477Z" fill="#1C1C1C"/>
<path d="M14.35 4.3125C14.659 4.31225 14.961 4.2204 15.2177 4.04856C15.4745 3.87672 15.6746 3.63261 15.7927 3.34708C15.9107 3.06155 15.9415 2.74742 15.8811 2.44441C15.8206 2.14139 15.6717 1.8631 15.4532 1.6447C15.2346 1.42631 14.9562 1.27762 14.6531 1.21743C14.3501 1.15724 14.036 1.18826 13.7505 1.30656C13.4651 1.42486 13.2211 1.62513 13.0495 1.88205C12.8779 2.13898 12.7863 2.44102 12.7863 2.75C12.7867 3.16448 12.9517 3.56182 13.2449 3.85478C13.538 4.14775 13.9355 4.31237 14.35 4.3125V4.3125ZM14.35 2.0625C14.4859 2.06275 14.6187 2.10328 14.7316 2.17897C14.8445 2.25467 14.9324 2.36212 14.9843 2.48777C15.0361 2.61342 15.0496 2.75161 15.0229 2.88489C14.9962 3.01817 14.9306 3.14055 14.8344 3.23658C14.7383 3.3326 14.6157 3.39795 14.4824 3.42438C14.3491 3.45081 14.2109 3.43712 14.0854 3.38505C13.9598 3.33298 13.8525 3.24486 13.777 3.13182C13.7015 3.01879 13.6613 2.88592 13.6613 2.75C13.6615 2.56751 13.7341 2.39257 13.8633 2.26364C13.9924 2.13472 14.1675 2.06237 14.35 2.0625V2.0625Z" fill="#1C1C1C"/>
<path d="M9.38574 6.9075C9.69478 6.9075 9.99687 6.81586 10.2538 6.64417C10.5108 6.47248 10.711 6.22845 10.8293 5.94295C10.9476 5.65744 10.9785 5.34327 10.9182 5.04017C10.8579 4.73708 10.7091 4.45867 10.4906 4.24015C10.2721 4.02163 9.99367 3.87281 9.69057 3.81252C9.38748 3.75224 9.07331 3.78318 8.7878 3.90144C8.50229 4.0197 8.25826 4.21997 8.08657 4.47692C7.91488 4.73388 7.82324 5.03597 7.82324 5.345C7.82371 5.75926 7.98847 6.15642 8.2814 6.44934C8.57432 6.74227 8.97148 6.90704 9.38574 6.9075ZM9.38574 4.6575C9.52172 4.6575 9.65464 4.69782 9.7677 4.77337C9.88076 4.84891 9.96887 4.95628 10.0209 5.08191C10.0729 5.20753 10.0866 5.34576 10.06 5.47913C10.0335 5.61249 9.96803 5.73499 9.87188 5.83114C9.77573 5.92729 9.65323 5.99276 9.51987 6.01929C9.38651 6.04582 9.24827 6.0322 9.12265 5.98017C8.99702 5.92813 8.88965 5.84002 8.81411 5.72696C8.73856 5.6139 8.69824 5.48098 8.69824 5.345C8.69837 5.16271 8.77085 4.98791 8.89975 4.85901C9.02866 4.73011 9.20345 4.65763 9.38574 4.6575V4.6575Z" fill="#1C1C1C"/>
<path d="M20.735 6.431C21.044 6.431 21.3461 6.33936 21.6031 6.16767C21.86 5.99598 22.0603 5.75195 22.1786 5.46644C22.2968 5.18093 22.3278 4.86677 22.2675 4.56367C22.2072 4.26058 22.0584 3.98217 21.8398 3.76365C21.6213 3.54513 21.3429 3.39631 21.0398 3.33602C20.7367 3.27573 20.4226 3.30668 20.137 3.42494C19.8515 3.5432 19.6075 3.74347 19.4358 4.00042C19.2641 4.25737 19.1725 4.55947 19.1725 4.8685C19.1729 5.28276 19.3377 5.67992 19.6306 5.97284C19.9236 6.26577 20.3207 6.43054 20.735 6.431V6.431ZM20.735 4.181C20.871 4.181 21.0039 4.22132 21.1169 4.29686C21.23 4.37241 21.3181 4.47978 21.3702 4.60541C21.4222 4.73103 21.4358 4.86926 21.4093 5.00262C21.3828 5.13599 21.3173 5.25849 21.2211 5.35464C21.125 5.45078 21.0025 5.51626 20.8691 5.54279C20.7358 5.56932 20.5975 5.5557 20.4719 5.50367C20.3463 5.45163 20.2389 5.36351 20.1634 5.25045C20.0878 5.1374 20.0475 5.00448 20.0475 4.8685C20.0476 4.6862 20.1201 4.51141 20.249 4.38251C20.3779 4.25361 20.5527 4.18113 20.735 4.181V4.181Z" fill="#1C1C1C"/>
</svg>
