<svg width="32" height="32" viewBox="0 0 32 32" fill="none" xmlns="http://www.w3.org/2000/svg"><path d="M1.515 30.622A.5.5 0 002 31h21a.5.5 0 00.485-.378l.5-2A.499.499 0 0023.5 28h-.526a10.505 10.505 0 00-8.494-9.806c.006-.066.02-.129.02-.194a2 2 0 00-4 0c0 .065.014.128.02.194A10.506 10.506 0 002.025 28H1.5a.5.5 0 00-.485.622l.5 2zM22.61 30H2.39l-.25-1h20.72l-.25 1zM11.5 18a1 1 0 112 0c0 .017-.005.034-.005.05-.328-.031-.659-.05-.995-.05-.336 0-.667.02-.995.05 0-.017-.005-.033-.005-.05zm1 1a9.504 9.504 0 019.474 9H3.025a9.503 9.503 0 019.475-9z" fill="#1C1C1C"/><path d="M5.137 24.25l.866.5a7.514 7.514 0 018.372-3.514l.25-.968a8.513 8.513 0 00-9.488 3.982zM4.268 26.375l.968.25a7.45 7.45 0 01.309-.938l-.927-.375c-.14.347-.257.701-.35 1.063zM30.5 3.5H29v-2a.5.5 0 00-.577-.494l-16 2.5v.01A.493.493 0 0012 4v11h1V4.5h17V30h-5.5v1h6a.5.5 0 00.5-.5V4a.5.5 0 00-.5-.5zm-2.5 0h-9.061L28 2.084V3.5z" fill="#1C1C1C"/><path d="M16.904 9.889l-1.415-1.414-.707.707 1.415 1.414a2.5 2.5 0 003.146.318l1.45 1.45-4.596 4.596.707.707 4.596-4.596 4.596 4.596.707-.707-4.596-4.596.743-.743a2.502 2.502 0 003.146-.318l.707-.707a2.5 2.5 0 10-3.535-3.535l-.707.707a2.5 2.5 0 00-.318 3.146l-.743.743-1.45-1.45a2.5 2.5 0 00-.318-3.146l-1.414-1.414-.707.707 1.414 1.414a1.5 1.5 0 01.289 1.7l-2.41-2.41-.707.708 2.41 2.409a1.5 1.5 0 01-1.703-.286zm6.364-1.414l.707-.707a1.5 1.5 0 012.121 2.121l-.707.707a1.5 1.5 0 11-2.121-2.121zM27.5 19h1v1h-1v-1zM27.5 21h1v1h-1v-1zM27.5 23h1v1h-1v-1zM20 19h6.5v1H20v-1zM22 21h4.5v1H22v-1zM23.5 23h3v1h-3v-1zM10 5h1v9h-1V5z" fill="#1C1C1C"/></svg>