<svg width="32" height="32" viewBox="0 0 32 32" fill="none" xmlns="http://www.w3.org/2000/svg">
<path d="M18.7402 28.5522H17.7383V29.4951H18.7402V28.5522Z" fill="#1C1C1C"/>
<path d="M20.7442 28.5522H19.7424V29.4951H20.7442V28.5522Z" fill="#1C1C1C"/>
<path d="M23.0551 1.50275L19.0477 5.51013H15.1877C14.9465 2.43138 12.3643 0 9.22467 0C5.92642 0 3.2431 2.68338 3.2431 5.98156C3.2431 9.12119 5.67448 11.7034 8.75317 11.9446V21.5099H9.6961V14.9688H15.431L17.4899 12.9099L20.5505 15.9706H23.7808V28.5524H21.7771V31.057H11.6998V29.4954H15.7366V28.5525H9.6961V23.0131H8.75317V29.4954H10.7569V32H22.7201V29.4954H24.7238V9.98894H23.7809V15.0276H20.9412L19.7145 13.801V6.45306H23.7809V8.48606H24.7238V5.51006H20.3814L23.4458 2.44563H26.7569V1.50275H23.0551ZM8.75317 10.9975C6.19523 10.7589 4.18604 8.60088 4.18604 5.98163C4.18604 3.20331 6.44635 0.942937 9.22467 0.942937C11.8439 0.942937 14.002 2.95213 14.2405 5.51006H12.1631C11.9364 4.09244 10.7053 3.0055 9.22473 3.0055C7.58367 3.0055 6.2486 4.34056 6.2486 5.98156C6.2486 7.46213 7.33554 8.69325 8.75323 8.91994V10.9975H8.75317ZM8.75317 7.95888C7.85879 7.74563 7.19148 6.94031 7.19148 5.98156C7.19148 4.8605 8.10354 3.9485 9.2246 3.9485C10.1834 3.9485 10.9887 4.61575 11.2019 5.51013H8.7531V7.95888H8.75317ZM17.4899 11.5763L15.0404 14.0258H9.6961V6.45306H18.7715V12.858L17.4899 11.5763Z" fill="#1C1C1C"/>
<path d="M12.2578 22.011V26.9908H16.7366V26.0479H13.2008V22.011H12.2578Z" fill="#1C1C1C"/>
<path d="M18.7402 26.0477H17.7383V26.9906H18.7402V26.0477Z" fill="#1C1C1C"/>
</svg>
