<svg width="32" height="32" viewBox="0 0 32 32" fill="none" xmlns="http://www.w3.org/2000/svg">
<path d="M23.9419 9.308C23.6979 9.064 23.3021 9.064 23.058 9.308L21.808 10.558C21.5639 10.8021 21.5639 11.1978 21.808 11.4419C22.0522 11.6861 22.4479 11.686 22.6919 11.4419L23.9419 10.1919C24.186 9.94788 24.186 9.55213 23.9419 9.308Z" fill="#1C1C1C"/>
<path d="M8.94193 9.308C8.69787 9.064 8.30212 9.064 8.05799 9.308L6.80799 10.558C6.56392 10.8021 6.56392 11.1978 6.80799 11.4419C7.05217 11.6861 7.44786 11.686 7.69193 11.4419L8.94193 10.1919C9.18599 9.94788 9.18599 9.55213 8.94193 9.308Z" fill="#1C1C1C"/>
<path d="M20.8169 6.808C20.5729 6.564 20.1771 6.564 19.933 6.808L18.683 8.058C18.4389 8.30206 18.4389 8.69781 18.683 8.94194C18.9272 9.18606 19.3229 9.186 19.5669 8.94194L20.8169 7.69194C21.061 7.44787 21.061 7.05212 20.8169 6.808Z" fill="#1C1C1C"/>
<path d="M13.3169 6.808C13.0729 6.564 12.6771 6.564 12.433 6.808L11.183 8.058C10.9389 8.30206 10.9389 8.69781 11.183 8.94194C11.4272 9.18606 11.8229 9.186 12.0669 8.94194L13.3169 7.69194C13.561 7.44787 13.561 7.05212 13.3169 6.808Z" fill="#1C1C1C"/>
<path d="M16.4419 9.308C16.1979 9.064 15.8021 9.064 15.558 9.308L14.308 10.558C14.0639 10.8021 14.0639 11.1978 14.308 11.4419C14.5522 11.6861 14.9479 11.686 15.1919 11.4419L16.4419 10.1919C16.686 9.94788 16.686 9.55213 16.4419 9.308Z" fill="#1C1C1C"/>
<path d="M32 22.25C32 21.2161 31.1589 20.375 30.125 20.375H29.5V18.3606C29.5258 18.3382 29.552 18.3168 29.5773 18.2938C29.983 17.9239 30.8304 17.6875 31.3829 17.6805C31.728 17.6762 32.0043 17.3928 31.9999 17.0477C31.9956 16.7053 31.7167 16.4306 31.3751 16.4306C31.3725 16.4306 31.3697 16.4306 31.3671 16.4306C30.8308 16.4374 30.1183 16.5798 29.5 16.8721V15.2338C30.261 14.9223 30.7669 14.1388 30.6583 13.2691C29.9211 7.3435 24.8554 2.875 18.875 2.875H13.125C7.14463 2.875 2.07894 7.3435 1.34169 13.2688C1.23337 14.136 1.73588 14.9211 2.5 15.2338V16.8445C1.87944 16.5634 1.16519 16.4228 0.616813 16.4306C0.271688 16.4351 -0.0044375 16.7186 6.25e-05 17.0638C0.0045625 17.4062 0.2835 17.6806 0.624875 17.6806C0.627625 17.6806 0.630437 17.6806 0.63325 17.6805C1.19213 17.6719 2.05962 17.9054 2.48275 18.2914C2.48837 18.2966 2.49437 18.3014 2.50006 18.3066V20.375H1.875C0.839125 20.375 0 21.214 0 22.25C0 23.1791 0.679375 23.9521 1.56737 24.0993C1.42131 24.4849 1.41081 24.9061 1.54625 25.3064C2.32087 27.5904 4.46231 29.125 6.875 29.125H25.125C27.5377 29.125 29.6791 27.5904 30.4539 25.306C30.5893 24.9061 30.5788 24.4851 30.4328 24.0996C31.304 23.9563 32 23.1981 32 22.25ZM2.58206 13.4234C3.24169 8.12244 7.77413 4.125 13.125 4.125H18.875C24.2259 4.125 28.7583 8.12244 29.4179 13.4237C29.4631 13.7849 29.1812 14.0994 28.8332 14.1227C28.8291 14.1229 28.8249 14.1233 28.8208 14.1237C28.8101 14.1246 28.7994 14.125 28.7887 14.125H3.21125C2.84313 14.125 2.535 13.8009 2.58206 13.4234ZM25.8274 17.37C24.4539 16.1176 22.6085 16.1176 21.2351 17.37C20.3382 18.1878 19.2241 18.1878 18.3274 17.37C16.9539 16.1176 15.1085 16.1176 13.7351 17.37C12.8383 18.1878 11.7241 18.1878 10.8274 17.37C9.45394 16.1176 7.6085 16.1175 6.23494 17.3701C5.47488 18.0637 4.56431 18.1738 3.75 17.6859V15.375H28.25V17.7222C27.4526 18.1659 26.5654 18.0431 25.8274 17.37ZM28.25 19.0777V20.375H3.75V19.0589C4.08794 19.1759 4.43475 19.2344 4.78125 19.2343C5.58781 19.2343 6.39225 18.9188 7.07744 18.2936C7.97419 17.4759 9.08837 17.4759 9.98512 18.2936C11.3586 19.5462 13.2041 19.5461 14.5774 18.2936C15.4742 17.4759 16.5884 17.4759 17.4851 18.2936C18.8586 19.5462 20.7041 19.5461 22.0774 18.2936C22.9742 17.4758 24.0884 17.4759 24.9851 18.2936C25.9412 19.1656 27.1416 19.4336 28.25 19.0777ZM29.27 24.9049C28.6675 26.6814 27.0017 27.875 25.125 27.875H6.875C4.99825 27.875 3.3325 26.6814 2.73019 24.9053C2.6005 24.5222 2.93131 24.125 3.34125 24.125H28.6588C29.0702 24.125 29.3989 24.5241 29.27 24.9049ZM30.125 22.875H1.875C1.53038 22.875 1.25 22.5946 1.25 22.25C1.25 21.9049 1.52994 21.625 1.875 21.625H30.125C30.4696 21.625 30.75 21.9054 30.75 22.25C30.75 22.5951 30.4701 22.875 30.125 22.875Z" fill="#1C1C1C"/>
</svg>
