<svg width="25" height="26" viewBox="0 0 25 26" fill="none" xmlns="http://www.w3.org/2000/svg"><path fill-rule="evenodd" clip-rule="evenodd" d="M11.376 1.13a.5.5 0 01.457-.297 4 4 0 014 4V9h6.1a2.833 2.833 0 012.831 3.258l-1.61 10.5a2.834 2.834 0 01-2.83 2.409H3.667a2.833 2.833 0 01-2.834-2.834v-8.166a2.833 2.833 0 012.834-2.834h3.175L11.376 1.13zm-4.71 11.203h-3a1.833 1.833 0 00-1.833 1.834v8.166a1.833 1.833 0 001.834 1.834h3V12.333zm1 11.834h12.666a1.834 1.834 0 001.834-1.559l1.61-10.5A1.833 1.833 0 0021.942 10h-6.609a.5.5 0 01-.5-.5V4.833a3 3 0 00-2.682-2.983L7.667 11.94v12.227z" fill="#1C1C1C"/></svg>