<?xml version="1.0" encoding="UTF-8"?>
<svg width="24px" height="24px" viewBox="0 0 24 24" version="1.1" xmlns="http://www.w3.org/2000/svg" xmlns:xlink="http://www.w3.org/1999/xlink">
    <!-- Generator: Sketch 52.6 (67491) - http://www.bohemiancoding.com/sketch -->
    <title>icon--whatsapp-24</title>
    <desc>Created with Sketch.</desc>
    <defs>
        <polygon id="path-1" points="0 1.14014252e-05 23.9920955 1.14014252e-05 23.9920955 23.9928741 0 23.9928741"></polygon>
    </defs>
    <g id="Page-1" stroke="none" stroke-width="1" fill="none" fill-rule="evenodd">
        <g id="Mobile" transform="translate(0.000000, -49.000000)">
            <g id="icon--whatsapp-24" transform="translate(0.000000, 49.000000)">
                <mask id="mask-2" fill="white">
                    <use xlink:href="#path-1"></use>
                </mask>
                <g id="Clip-2"></g>
                <path d="M17.4924487,14.3778356 C17.1939666,14.2292181 15.7265298,13.5105862 15.4529069,13.4113938 C15.179284,13.3122584 14.9802959,13.2627192 14.7813079,13.5600114 C14.5823198,13.8574176 14.0103294,14.5265672 13.8361432,14.724895 C13.6620716,14.9230518 13.4879427,14.9479639 13.1895179,14.7992323 C12.8909785,14.6505007 11.9292029,14.3368475 10.7891169,13.324686 C9.90174702,12.5370185 9.30272076,11.5642489 9.12859189,11.2667857 C8.95452029,10.9694366 9.11009069,10.8086765 9.25953222,10.660515 C9.39379475,10.5274033 9.55801432,10.3135126 9.70722673,10.1400969 C9.85649642,9.96662423 9.9062148,9.84263373 10.0057088,9.64453397 C10.1052029,9.44620618 10.0554845,9.27273349 9.98084964,9.12405891 C9.9062148,8.97538432 9.3092506,7.51309454 9.06054415,6.91822518 C8.81825298,6.33908979 8.57218138,6.41753159 8.38894511,6.40829644 C8.21504535,6.39968836 8.01582816,6.39786413 7.81689737,6.39786413 C7.61790931,6.39786413 7.29451074,6.47220143 7.02094511,6.76955059 C6.7473222,7.06701378 5.97622912,7.78570261 5.97622912,9.24787838 C5.97622912,10.7101112 7.0458043,12.1226337 7.19507399,12.3209045 C7.3442864,12.5192323 9.29979952,15.5197454 12.2940716,16.8065672 C13.0062243,17.1126385 13.5622339,17.2954603 13.9956659,17.4322774 C14.7107399,17.6584817 15.361432,17.6265577 15.875685,17.5500542 C16.4491647,17.4647715 17.6416611,16.8314223 17.8904248,16.1375316 C18.1391313,15.4435268 18.1391313,14.8487715 18.0644964,14.724895 C17.9899189,14.6009615 17.7909308,14.5265672 17.4924487,14.3778356 M12.0462243,21.7787857 L12.0422148,21.7787857 C10.2606014,21.7781017 8.51312649,21.3017501 6.98863962,20.4013796 L6.62611933,20.1872038 L2.86820048,21.1682964 L3.87121718,17.5217786 L3.63516945,17.1479259 C2.64126014,15.5745862 2.11635322,13.7562299 2.11709785,11.8890185 C2.11927446,6.44061948 6.57342243,2.0079734 12.0501766,2.0079734 C14.7022053,2.00888551 17.1951695,3.03814917 19.0698043,4.90598765 C20.9443819,6.77376912 21.9761527,9.25660048 21.975179,11.8969425 C21.9729451,17.3457976 17.5187971,21.7787857 12.0462243,21.7787857 M20.4965155,3.48668124 C18.2411456,1.23940333 15.2417757,0.00126555819 12.0461098,1.14014252e-05 C5.46168974,1.14014252e-05 0.10275895,5.33308504 0.100124105,11.8882204 C0.0992649165,13.9836884 0.649317422,16.02899 1.69472076,17.8320684 L0,23.9928855 L6.3326778,22.3395648 C8.0775179,23.2867382 10.0420239,23.7860067 12.0413556,23.7866907 L12.0462243,23.7866907 L12.0462816,23.7866907 C18.6300143,23.7866907 23.9894606,18.453047 23.9920955,11.8977406 C23.9932983,8.72101853 22.7518854,5.73390214 20.4965155,3.48668124" id="Fill-1" fill="#FFFFFF" mask="url(#mask-2)"></path>
            </g>
        </g>
    </g>
</svg>