<svg width="32" height="32" viewBox="0 0 32 32" fill="none" xmlns="http://www.w3.org/2000/svg">
<path d="M1.51502 30.6215C1.5421 30.7296 1.60454 30.8256 1.69241 30.8942C1.78029 30.9627 1.88855 31 2.00002 31H23C23.1115 31 23.2197 30.9627 23.3076 30.8942C23.3955 30.8256 23.4579 30.7296 23.485 30.6215L23.985 28.6215C24.0035 28.5478 24.0049 28.4708 23.9892 28.3965C23.9734 28.3221 23.9409 28.2523 23.8942 28.1924C23.8474 28.1325 23.7876 28.084 23.7193 28.0507C23.651 28.0173 23.576 28 23.5 28H22.9745C22.8609 25.6504 21.962 23.4069 20.4218 21.6289C18.8817 19.8509 16.7894 18.6411 14.48 18.1935C14.486 18.1285 14.5 18.065 14.5 18C14.5 17.4696 14.2893 16.9609 13.9142 16.5858C13.5392 16.2107 13.0305 16 12.5 16C11.9696 16 11.4609 16.2107 11.0858 16.5858C10.7107 16.9609 10.5 17.4696 10.5 18C10.5 18.065 10.514 18.1285 10.52 18.1935C8.21066 18.6411 6.11835 19.8509 4.57819 21.6289C3.03804 23.4069 2.13915 25.6504 2.02552 28H1.50002C1.42401 28 1.34901 28.0173 1.28071 28.0507C1.21241 28.084 1.15261 28.1325 1.10585 28.1924C1.05909 28.2523 1.02661 28.3221 1.01087 28.3965C0.99513 28.4708 0.996549 28.5478 1.01502 28.6215L1.51502 30.6215ZM22.6095 30H2.39052L2.14052 29H22.8595L22.6095 30ZM11.5 18C11.5 17.7348 11.6054 17.4804 11.7929 17.2929C11.9804 17.1054 12.2348 17 12.5 17C12.7652 17 13.0196 17.1054 13.2071 17.2929C13.3947 17.4804 13.5 17.7348 13.5 18C13.5 18.017 13.4955 18.0335 13.495 18.05C13.167 18.019 12.836 18 12.5 18C12.164 18 11.833 18.0195 11.505 18.05C11.5045 18.0335 11.5 18.017 11.5 18ZM12.5 19C14.9306 19.004 17.2673 19.9392 19.0296 21.6132C20.7919 23.2872 21.8457 25.5728 21.9745 28H3.02552C3.15429 25.5728 4.20817 23.2872 5.97044 21.6132C7.73271 19.9392 10.0694 19.004 12.5 19V19Z" fill="#1C1C1C"/>
<path d="M5.13748 24.25L6.00298 24.75C6.82418 23.3313 8.08676 22.22 9.59825 21.5856C11.1097 20.9512 12.7872 20.8284 14.375 21.236L14.625 20.268C12.8257 19.8056 10.9246 19.9445 9.21157 20.6635C7.49858 21.3824 6.0678 22.642 5.13748 24.25V24.25Z" fill="#1C1C1C"/>
<path d="M4.26797 26.375L5.23597 26.625C5.31814 26.306 5.42136 25.9928 5.54497 25.6875L4.61797 25.3125C4.47816 25.6586 4.36124 26.0135 4.26797 26.375V26.375Z" fill="#1C1C1C"/>
<path d="M30.5 3.49999H29V1.49999C29 1.42783 28.9844 1.35651 28.9542 1.29096C28.924 1.2254 28.88 1.16715 28.8252 1.12022C28.7704 1.07328 28.706 1.03877 28.6366 1.01905C28.5672 0.999335 28.4943 0.994881 28.423 1.006L12.423 3.50599V3.51549C12.3062 3.53225 12.1992 3.59036 12.1216 3.67927C12.044 3.76817 12.0008 3.88197 12 3.99999V15H13V4.49999H30V30H24.5V31H30.5C30.6326 31 30.7598 30.9473 30.8536 30.8535C30.9473 30.7598 31 30.6326 31 30.5V3.99999C31 3.86739 30.9473 3.74021 30.8536 3.64644C30.7598 3.55267 30.6326 3.49999 30.5 3.49999ZM28 3.49999H18.9385L28 2.08399V3.49999Z" fill="#1C1C1C"/>
<path d="M16.904 9.88902L15.4895 8.47502L14.7825 9.18202L16.197 10.596C16.6044 11.0034 17.14 11.2576 17.7133 11.3156C18.2866 11.3735 18.8623 11.2317 19.343 10.914L20.793 12.364L16.197 16.96L16.904 17.667L21.5 13.071L26.096 17.667L26.803 16.96L22.207 12.364L22.95 11.621C23.4308 11.9382 24.0064 12.0798 24.5796 12.0218C25.1527 11.9639 25.6883 11.71 26.096 11.303L26.803 10.596C27.0417 10.3654 27.2322 10.0895 27.3632 9.78453C27.4942 9.47952 27.5632 9.15147 27.5661 8.81952C27.569 8.48757 27.5057 8.15837 27.38 7.85113C27.2543 7.54389 27.0687 7.26476 26.834 7.03003C26.5992 6.7953 26.3201 6.60966 26.0129 6.48396C25.7056 6.35826 25.3764 6.295 25.0445 6.29789C24.7125 6.30077 24.3845 6.36974 24.0795 6.50076C23.7744 6.63178 23.4986 6.82224 23.268 7.06102L22.561 7.76802C22.1535 8.17544 21.8994 8.71109 21.8414 9.28436C21.7835 9.85762 21.9253 10.4333 22.243 10.914L21.5 11.657L20.05 10.207C20.3676 9.7263 20.5095 9.15062 20.4515 8.57736C20.3936 8.00409 20.1394 7.46844 19.732 7.06102L18.318 5.64651L17.611 6.35352L19.025 7.76802C19.2421 7.98729 19.3863 8.26819 19.4379 8.57242C19.4895 8.87664 19.4461 9.18939 19.3135 9.46802L16.904 7.05852L16.197 7.76552L18.6065 10.175C18.3278 10.3085 18.0147 10.3527 17.71 10.3015C17.4052 10.2503 17.1237 10.1062 16.904 9.88902V9.88902ZM23.268 8.47502L23.975 7.76802C24.2579 7.49478 24.6368 7.34359 25.0301 7.347C25.4234 7.35042 25.7996 7.50818 26.0777 7.78629C26.3558 8.0644 26.5136 8.44062 26.517 8.83392C26.5204 9.22721 26.3692 9.60611 26.096 9.88902L25.389 10.596C25.2506 10.7393 25.0851 10.8536 24.9021 10.9322C24.7191 11.0108 24.5222 11.0522 24.3231 11.0539C24.1239 11.0556 23.9264 11.0177 23.742 10.9423C23.5577 10.8668 23.3902 10.7554 23.2494 10.6146C23.1085 10.4738 22.9972 10.3063 22.9217 10.1219C22.8463 9.9376 22.8084 9.74008 22.8101 9.54092C22.8118 9.34175 22.8532 9.14492 22.9318 8.96191C23.0104 8.7789 23.1247 8.61339 23.268 8.47502V8.47502Z" fill="#1C1C1C"/>
<path d="M27.5 19H28.5V20H27.5V19Z" fill="#1C1C1C"/>
<path d="M27.5 21H28.5V22H27.5V21Z" fill="#1C1C1C"/>
<path d="M27.5 23H28.5V24H27.5V23Z" fill="#1C1C1C"/>
<path d="M20 19H26.5V20H20V19Z" fill="#1C1C1C"/>
<path d="M22 21H26.5V22H22V21Z" fill="#1C1C1C"/>
<path d="M23.5 23H26.5V24H23.5V23Z" fill="#1C1C1C"/>
<path d="M10 5H11V14H10V5Z" fill="#1C1C1C"/>
</svg>
