<svg width="32" height="32" viewBox="0 0 32 32" fill="none" xmlns="http://www.w3.org/2000/svg">
<path d="M30.7798 13.715C30.6677 13.3087 30.4517 12.9387 30.1531 12.6413C29.8545 12.344 29.4835 12.1296 29.0768 12.0193C28.4612 11.8443 27.8211 11.7719 27.182 11.8048C27.9523 10.8878 28.407 9.97975 28.1275 9.261C27.8368 8.51525 27.335 8.08325 26.751 8.07575H26.735C26.1315 8.07575 25.5835 8.524 25.2665 9.278C25.2508 9.3155 25.2348 9.358 25.2188 9.3985C25.1232 9.08801 25.0055 8.78474 24.8668 8.491C24.6872 8.11044 24.4116 7.78323 24.0671 7.54163C23.7225 7.30004 23.321 7.15239 22.902 7.11325C22.7125 7.09321 22.5212 7.12675 22.3498 7.21006C22.1784 7.29337 22.0338 7.4231 21.9325 7.5845C21.6863 8.0195 21.8075 8.61625 22.2943 9.35775C22.9621 10.3014 23.348 11.4154 23.4073 12.57C22.847 12.161 22.2348 11.8565 21.4773 11.9218C21.0291 11.9709 20.5966 12.1148 20.2083 12.3438C20.4534 11.8268 20.5576 11.2542 20.5105 10.684C20.4682 10.3033 20.3465 9.93573 20.1531 9.60509C19.9597 9.27446 19.699 8.98814 19.3879 8.76469C19.0767 8.54123 18.7222 8.38562 18.3471 8.30794C17.972 8.23026 17.5848 8.23224 17.2105 8.31375C16.4905 8.49537 15.8528 8.91422 15.4 9.50275C15.0716 9.41106 14.7219 9.43209 14.4068 9.5625C14.2515 9.6248 14.1042 9.70537 13.968 9.8025C13.821 9.64144 13.6418 9.513 13.4421 9.42549C13.2423 9.33798 13.0265 9.29335 12.8084 9.29446C12.5903 9.29558 12.3749 9.34243 12.1761 9.43198C11.9772 9.52153 11.7994 9.65179 11.654 9.81436C11.5087 9.97692 11.399 10.1682 11.3322 10.3757C11.2653 10.5833 11.2428 10.8026 11.266 11.0194C11.2891 11.2363 11.3576 11.4458 11.4668 11.6346C11.576 11.8233 11.7236 11.9871 11.9 12.1153C11.8072 12.3878 11.7766 12.6778 11.8105 12.9638C11.2793 12.5663 10.6593 12.3042 10.004 12.2C9.90801 11.4843 9.49626 10.7765 8.91226 10.5398C8.74223 9.96007 8.36319 9.46407 7.84851 9.14775C7.54521 8.96086 7.18738 8.88266 6.83376 8.926C6.4687 8.2457 5.88403 7.70906 5.17501 7.4035C4.80721 7.25021 4.41012 7.17995 4.01204 7.19771C3.61397 7.21547 3.22471 7.32082 2.87201 7.50625C2.51191 7.6774 2.19403 7.92592 1.94105 8.23409C1.68807 8.54225 1.50623 8.90246 1.40851 9.289C1.22776 10.0397 1.30663 10.8294 1.63226 11.5295C1.38624 11.7845 1.23387 12.1153 1.20001 12.468C1.1432 13.0711 1.31248 13.6739 1.67501 14.1593C1.51826 14.747 1.82351 15.4445 2.23626 15.9093C2.66126 16.3885 3.17151 16.6235 3.63926 16.5745C3.80998 16.8021 4.022 16.9956 4.26426 17.1448H4.25001C4.1894 17.1448 4.12945 17.1574 4.07397 17.1818C4.01848 17.2062 3.96867 17.2418 3.92768 17.2865C3.8867 17.3311 3.85543 17.3838 3.83586 17.4412C3.8163 17.4986 3.80886 17.5594 3.81401 17.6198C4.03901 20.291 5.13101 24.9615 9.82576 27.1948C9.03577 28.0683 8.58726 29.1975 8.56251 30.375C8.56248 30.4325 8.57378 30.4894 8.59575 30.5425C8.61772 30.5956 8.64995 30.6438 8.69058 30.6844C8.73121 30.7251 8.77946 30.7573 8.83255 30.7793C8.88565 30.8012 8.94255 30.8125 9.00001 30.8125H23C23.0575 30.8125 23.1144 30.8012 23.1675 30.7793C23.2206 30.7573 23.2688 30.7251 23.3094 30.6844C23.3501 30.6438 23.3823 30.5956 23.4043 30.5425C23.4263 30.4894 23.4375 30.4325 23.4375 30.375C23.4129 29.1976 22.9647 28.0686 22.175 27.195C26.8698 24.961 27.9623 20.2905 28.1868 17.62C28.1919 17.5595 28.1845 17.4987 28.1649 17.4413C28.1452 17.3838 28.1139 17.3311 28.0728 17.2865C28.0318 17.2418 27.9819 17.2062 27.9263 17.1818C27.8707 17.1575 27.8107 17.1449 27.75 17.145H25.95C26.4313 15.74 25.9865 14.8778 25.2988 14.1758C26.3238 14.0085 27.4543 14.1813 28.6738 14.7045C29.0211 14.8688 29.3977 14.9623 29.7815 14.9795C30.0354 14.9895 30.2845 14.9086 30.484 14.7513C30.6261 14.624 30.7292 14.4592 30.7815 14.2758C30.8339 14.0925 30.8333 13.898 30.7798 13.715ZM25.725 10.5895C25.857 10.1988 25.9708 9.86125 26.0733 9.617C26.2668 9.156 26.545 8.95075 26.736 8.95075H26.7395C26.9458 8.95325 27.16 9.18825 27.3123 9.5785C27.4948 10.0473 26.7873 11.2185 24.8573 12.8638C25.1876 12.122 25.4773 11.3628 25.725 10.5895V10.5895ZM22.6933 8.01625C22.7856 7.97645 22.8891 7.97122 22.985 8.0015C23.2192 8.05347 23.4386 8.15755 23.6269 8.30601C23.8153 8.45447 23.9678 8.64349 24.073 8.859C24.459 9.62 24.6219 10.4746 24.543 11.3243C24.4545 11.5658 24.359 11.8113 24.2558 12.0573C24.1034 10.9148 23.6815 9.82488 23.025 8.8775C22.6555 8.313 22.67 8.054 22.6933 8.01625ZM14.725 10.3775C14.8183 10.3328 14.9217 10.3131 15.0249 10.3203C15.1281 10.3276 15.2277 10.3616 15.3138 10.419C15.3647 10.4537 15.4224 10.4773 15.483 10.4882C15.5437 10.4991 15.606 10.4971 15.6658 10.4822C15.7257 10.4674 15.7817 10.4401 15.8302 10.4021C15.8788 10.3641 15.9187 10.3163 15.9475 10.2618C16.2722 9.7176 16.7986 9.32363 17.4123 9.1655C17.6647 9.11268 17.9254 9.11295 18.1778 9.1663C18.4302 9.21964 18.6687 9.32489 18.8782 9.47535C19.0877 9.62582 19.2636 9.81822 19.3947 10.0403C19.5259 10.2624 19.6094 10.5094 19.64 10.7655C19.6862 11.3961 19.4816 12.0195 19.0705 12.5C19.0295 12.5429 18.9976 12.5938 18.977 12.6494C18.9564 12.7051 18.9474 12.7644 18.9505 12.8237C18.9537 12.883 18.969 12.941 18.9955 12.9942C19.022 13.0473 19.0591 13.0945 19.1045 13.1328C18.475 13.6893 17.8885 14.2926 17.35 14.9375C17.2686 14.8751 17.1675 14.8439 17.065 14.8495C17.0518 14.8495 16.234 14.8995 15.4248 15.039L16.3705 13.7205C16.7976 13.5774 17.2469 13.5124 17.697 13.5285C17.754 13.5358 17.8118 13.5319 17.8673 13.5169C17.9227 13.5018 17.9746 13.4761 18.0201 13.441C18.0656 13.4059 18.1037 13.3622 18.1322 13.3124C18.1608 13.2625 18.1793 13.2076 18.1866 13.1506C18.194 13.0937 18.19 13.0358 18.175 12.9804C18.16 12.925 18.1342 12.873 18.0991 12.8276C18.064 12.7821 18.0203 12.744 17.9705 12.7154C17.9207 12.6868 17.8657 12.6683 17.8088 12.661C17.5802 12.6409 17.3501 12.6448 17.1223 12.6725L17.965 11.4975C17.9985 11.4508 18.0224 11.398 18.0355 11.3421C18.0486 11.2862 18.0505 11.2282 18.0412 11.1716C18.0318 11.1149 18.0114 11.0606 17.9811 11.0118C17.9508 10.9631 17.9112 10.9207 17.8645 10.8873C17.8178 10.8538 17.765 10.8298 17.7091 10.8168C17.6532 10.8037 17.5952 10.8018 17.5386 10.8111C17.4819 10.8204 17.4276 10.8408 17.3789 10.8712C17.3301 10.9015 17.2877 10.9411 17.2543 10.9878L16.4103 12.1643C16.3632 11.9387 16.2931 11.7187 16.201 11.5075C16.1501 11.4032 16.0598 11.3235 15.95 11.2858C15.8403 11.2481 15.72 11.2555 15.6158 11.3065C15.5115 11.3575 15.4318 11.4477 15.3941 11.5575C15.3564 11.6673 15.3638 11.7875 15.4148 11.8918C15.5751 12.3138 15.6575 12.7615 15.658 13.213L14.713 14.5308C14.5855 13.7183 14.3695 12.926 14.366 12.9135C14.3328 12.8041 14.2582 12.7121 14.158 12.6571C14.0579 12.602 13.9402 12.5883 13.8301 12.619C13.72 12.6496 13.6262 12.7221 13.5689 12.821C13.5115 12.9198 13.4952 13.0372 13.5233 13.148C13.6865 13.735 13.9663 15.0545 13.9253 15.6288L13.0158 16.8968C13.0111 16.4769 12.9523 16.0593 12.8408 15.6545C12.673 14.9158 12.5158 14.2178 12.8963 13.6848C12.9638 13.5906 12.9912 13.4735 12.9724 13.3592C12.9537 13.2449 12.8903 13.1427 12.7963 13.075C12.619 12.9475 12.6538 12.583 12.7615 12.2983C12.9328 11.8443 13.2653 11.5483 13.4575 11.568C13.5635 11.5795 13.6699 11.5516 13.7566 11.4895C13.8432 11.4274 13.9039 11.3355 13.927 11.2315C13.979 11.0559 14.0715 10.8949 14.1973 10.7618C14.2008 10.7578 14.2045 10.7538 14.2078 10.7498C14.3498 10.5881 14.5266 10.4608 14.725 10.3775ZM13.915 17.145L14.64 16.135C15.301 15.9312 15.9834 15.8045 16.6735 15.7573C16.3255 16.192 15.9715 16.6573 15.6148 17.145H13.915ZM12.8175 10.165C12.9205 10.1653 13.0222 10.1886 13.115 10.2333C13.2078 10.2781 13.2894 10.3431 13.3538 10.4235C13.2883 10.5179 13.2308 10.6177 13.182 10.7218C12.8353 10.8213 12.5318 11.0338 12.3195 11.3255C12.2267 11.2281 12.1646 11.1057 12.1408 10.9733C12.117 10.841 12.1326 10.7045 12.1856 10.5809C12.2386 10.4573 12.3268 10.352 12.4391 10.2781C12.5515 10.2042 12.683 10.1648 12.8175 10.165V10.165ZM11.812 14.15C11.7716 14.7216 11.8308 15.2959 11.987 15.8473C12.097 16.2122 12.1463 16.5928 12.133 16.9738C12.1248 17.0301 12.1204 17.087 12.12 17.144H10.866L10.4093 16.6873H11.3305C11.4465 16.6873 11.5578 16.6412 11.6399 16.5591C11.7219 16.4771 11.768 16.3658 11.768 16.2498C11.768 16.1337 11.7219 16.0224 11.6399 15.9404C11.5578 15.8583 11.4465 15.8123 11.3305 15.8123H10.409L11.0608 15.1605C11.1405 15.078 11.1846 14.9675 11.1836 14.8528C11.1826 14.7381 11.1367 14.6283 11.0556 14.5472C10.9745 14.4661 10.8647 14.42 10.75 14.419C10.6353 14.418 10.5248 14.4621 10.4423 14.5418L9.79026 15.1935V14.273C9.79026 14.157 9.74417 14.0457 9.66212 13.9636C9.58008 13.8816 9.4688 13.8355 9.35276 13.8355C9.23673 13.8355 9.12545 13.8816 9.04341 13.9636C8.96136 14.0457 8.91526 14.157 8.91526 14.273V15.1943L8.26376 14.5428C8.18171 14.4607 8.07043 14.4146 7.95439 14.4146C7.83835 14.4146 7.72707 14.4607 7.64501 14.5428C7.56296 14.6248 7.51687 14.7361 7.51687 14.8521C7.51687 14.9682 7.56296 15.0795 7.64501 15.1615L8.29676 15.8133H7.37501C7.25898 15.8133 7.1477 15.8593 7.06566 15.9414C6.98361 16.0234 6.93751 16.1347 6.93751 16.2508C6.93751 16.3668 6.98361 16.4781 7.06566 16.5601C7.1477 16.6422 7.25898 16.6883 7.37501 16.6883H8.29676L7.83976 17.145H6.24751C6.04812 16.4559 6.08363 15.7201 6.34845 15.0534C6.61327 14.3868 7.09236 13.8272 7.71024 13.4627C8.32811 13.0983 9.04967 12.9498 9.76124 13.0406C10.4728 13.1314 11.1339 13.4564 11.6405 13.9643C11.7028 14.0265 11.7588 14.0885 11.812 14.15ZM3.97851 15.6523C3.92385 15.6342 3.86617 15.6272 3.80878 15.6315C3.75138 15.6358 3.69539 15.6513 3.64401 15.6773C3.43001 15.7853 3.11201 15.5793 2.89026 15.3295C2.54401 14.9395 2.43601 14.4885 2.55251 14.312C2.61133 14.2235 2.63591 14.1167 2.62165 14.0114C2.60738 13.9061 2.55525 13.8096 2.47501 13.74C2.32888 13.5842 2.21728 13.3994 2.14754 13.1975C2.07779 12.9956 2.05146 12.7813 2.07026 12.5685C2.0749 12.4582 2.10816 12.3509 2.16675 12.2573C2.22535 12.1637 2.30729 12.0869 2.40451 12.0345C2.45905 12.0056 2.50686 11.9655 2.54479 11.9169C2.58273 11.8682 2.60993 11.8121 2.62462 11.7521C2.63931 11.6922 2.64115 11.6298 2.63001 11.5692C2.61888 11.5085 2.59502 11.4508 2.56001 11.4C2.21267 10.834 2.10313 10.1537 2.25526 9.50725C2.32179 9.242 2.44678 8.99498 2.62111 8.78428C2.79543 8.57358 3.01466 8.40453 3.26276 8.2895C3.50359 8.16024 3.77026 8.08642 4.04328 8.07344C4.3163 8.06046 4.58876 8.10866 4.84076 8.2145C5.44905 8.47992 5.92781 8.97495 6.17276 9.59175C6.1925 9.65008 6.22432 9.70358 6.26614 9.74877C6.30797 9.79395 6.35887 9.8298 6.4155 9.85396C6.47214 9.87812 6.53323 9.89006 6.5948 9.88899C6.65636 9.88792 6.717 9.87387 6.77276 9.84775C6.87385 9.80163 6.98515 9.78251 7.09583 9.79223C7.20651 9.80196 7.31278 9.84021 7.40426 9.90325C7.58512 10.0158 7.74014 10.1653 7.85918 10.3419C7.97822 10.5186 8.05859 10.7184 8.09501 10.9283C8.10229 11.0343 8.14791 11.134 8.22336 11.2089C8.29881 11.2837 8.39893 11.3286 8.50501 11.335C8.72801 11.3485 9.00176 11.7193 9.10651 12.1583C8.103 12.2145 7.15536 12.6384 6.44451 13.349C6.40751 13.386 6.37376 13.424 6.33826 13.4635L5.95001 12.6833C6.02472 12.2138 6.18451 11.762 6.42151 11.35C6.45459 11.303 6.47809 11.25 6.49067 11.1939C6.50325 11.1379 6.50467 11.0799 6.49483 11.0233C6.485 10.9667 6.46412 10.9125 6.43337 10.864C6.40263 10.8155 6.36262 10.7735 6.31564 10.7404C6.26866 10.7073 6.21562 10.6838 6.15956 10.6712C6.1035 10.6586 6.04551 10.6572 5.9889 10.6671C5.93229 10.6769 5.87817 10.6978 5.82963 10.7285C5.7811 10.7593 5.73909 10.7993 5.70601 10.8463C5.57042 11.0588 5.45771 11.285 5.36976 11.5213L4.67501 10.1368C4.6231 10.033 4.53207 9.95403 4.42197 9.91734C4.31186 9.88066 4.19169 9.88921 4.08789 9.94113C3.98409 9.99304 3.90517 10.0841 3.86848 10.1942C3.83179 10.3043 3.84035 10.4245 3.89226 10.5283L4.58551 11.9138C4.34398 11.8426 4.0956 11.7971 3.84451 11.778H3.83101C3.71498 11.7763 3.60302 11.8207 3.51975 11.9015C3.43648 11.9824 3.38874 12.093 3.38701 12.209C3.38529 12.325 3.42973 12.437 3.51056 12.5203C3.59139 12.6035 3.70198 12.6513 3.81801 12.653C4.28961 12.7108 4.74679 12.8538 5.16726 13.075L5.76001 14.2593C5.71118 14.3469 5.66593 14.4361 5.62426 14.5268C5.01101 14.3323 4.43076 14.1923 4.24576 14.1518C4.13225 14.1277 4.01383 14.1497 3.91654 14.2129C3.81926 14.2762 3.75108 14.3755 3.72701 14.489C3.70295 14.6025 3.72496 14.7209 3.7882 14.8182C3.85145 14.9155 3.95075 14.9837 4.06426 15.0078C4.27701 15.0528 4.80801 15.1853 5.34401 15.3545C5.24891 15.7826 5.22283 16.2232 5.26676 16.6595C5.05072 16.6033 4.84798 16.5047 4.67031 16.3695C4.49265 16.2343 4.34358 16.0652 4.23176 15.872C4.17979 15.7681 4.08871 15.6891 3.97851 15.6523V15.6523ZM9.46576 29.9375C9.61926 28.7503 10.3533 27.794 10.7375 27.5518H10.742C10.7463 27.5518 10.7503 27.5518 10.7545 27.5518H21.2575H21.2625C21.647 27.7948 22.3803 28.7518 22.5335 29.9368L9.46576 29.9375ZM21.1778 26.6768H10.8223C6.27501 24.8703 5.04376 20.669 4.73376 18.02H27.2663C26.9563 20.669 25.725 24.8703 21.1778 26.6768ZM16.703 17.145C17.0845 16.639 17.4613 16.1625 17.828 15.726C19.4155 13.8318 20.6338 12.8725 21.553 12.7935C22.276 12.732 22.84 13.207 23.553 13.81L23.678 13.9138C23.6838 13.9193 23.6903 13.9243 23.6965 13.9295L23.9238 14.12L24.034 14.212L24.0438 14.2203L24.1108 14.276C24.1218 14.2865 24.1335 14.2964 24.1458 14.3055C25.0978 15.107 25.6368 15.6973 25.0188 17.145H16.703ZM29.928 14.0763C29.8948 14.107 29.6415 14.1665 29.0198 13.9013C27.9966 13.4334 26.8792 13.2084 25.7548 13.2438C25.8798 13.1328 26.0029 13.0206 26.1243 12.9073C27.0073 12.6092 27.9614 12.5948 28.853 12.866C29.084 12.9321 29.2972 13.0493 29.4768 13.2089C29.6564 13.3686 29.7978 13.5666 29.8905 13.7883C29.9363 13.8769 29.9496 13.9788 29.928 14.0763V14.0763Z" fill="#1C1C1C"/>
<path d="M24.7478 21.48C24.4469 22.093 24.0696 22.6654 23.625 23.1837C23.5875 23.2272 23.5588 23.2776 23.5408 23.3322C23.5227 23.3867 23.5155 23.4443 23.5197 23.5016C23.5238 23.5589 23.5393 23.6148 23.565 23.6662C23.5908 23.7175 23.6265 23.7633 23.6699 23.8009C23.7134 23.8384 23.7638 23.8671 23.8184 23.8852C23.8729 23.9032 23.9305 23.9104 23.9878 23.9062C24.0451 23.9021 24.101 23.8866 24.1524 23.8609C24.2037 23.8351 24.2495 23.7994 24.2871 23.756C24.7797 23.1817 25.1977 22.5475 25.5311 21.8682C25.5825 21.7642 25.5906 21.6441 25.5535 21.5341C25.5163 21.4242 25.4371 21.3335 25.3331 21.282C25.2291 21.2305 25.1089 21.2224 24.9989 21.2596C24.889 21.2967 24.7983 21.376 24.7468 21.48H24.7478Z" fill="#1C1C1C"/>
<path d="M14.35 4.3125C14.659 4.31225 14.961 4.2204 15.2178 4.04856C15.4746 3.87672 15.6746 3.63261 15.7927 3.34708C15.9108 3.06155 15.9415 2.74742 15.8811 2.44441C15.8207 2.14139 15.6718 1.8631 15.4532 1.6447C15.2346 1.42631 14.9562 1.27762 14.6532 1.21743C14.3501 1.15724 14.036 1.18826 13.7506 1.30656C13.4651 1.42486 13.2212 1.62513 13.0495 1.88205C12.8779 2.13898 12.7863 2.44102 12.7863 2.75C12.7867 3.16448 12.9517 3.56182 13.2449 3.85478C13.5381 4.14775 13.9356 4.31237 14.35 4.3125V4.3125ZM14.35 2.0625C14.486 2.06275 14.6188 2.10328 14.7316 2.17897C14.8445 2.25467 14.9325 2.36212 14.9843 2.48777C15.0362 2.61342 15.0496 2.75161 15.0229 2.88489C14.9963 3.01817 14.9307 3.14055 14.8345 3.23658C14.7383 3.3326 14.6158 3.39795 14.4825 3.42438C14.3491 3.45081 14.211 3.43712 14.0854 3.38505C13.9599 3.33298 13.8526 3.24486 13.7771 3.13182C13.7016 3.01879 13.6613 2.88592 13.6613 2.75C13.6615 2.56751 13.7342 2.39257 13.8633 2.26364C13.9925 2.13472 14.1675 2.06237 14.35 2.0625V2.0625Z" fill="#1C1C1C"/>
<path d="M9.38574 6.9075C9.69478 6.9075 9.99687 6.81586 10.2538 6.64417C10.5108 6.47248 10.711 6.22845 10.8293 5.94295C10.9476 5.65744 10.9785 5.34327 10.9182 5.04017C10.8579 4.73708 10.7091 4.45867 10.4906 4.24015C10.2721 4.02163 9.99367 3.87281 9.69057 3.81252C9.38748 3.75224 9.07331 3.78318 8.7878 3.90144C8.50229 4.0197 8.25826 4.21997 8.08657 4.47692C7.91488 4.73388 7.82324 5.03597 7.82324 5.345C7.82371 5.75926 7.98847 6.15642 8.2814 6.44934C8.57432 6.74227 8.97148 6.90704 9.38574 6.9075ZM9.38574 4.6575C9.52172 4.6575 9.65464 4.69782 9.7677 4.77337C9.88076 4.84891 9.96887 4.95628 10.0209 5.08191C10.0729 5.20753 10.0866 5.34576 10.06 5.47913C10.0335 5.61249 9.96803 5.73499 9.87188 5.83114C9.77573 5.92729 9.65323 5.99276 9.51987 6.01929C9.38651 6.04582 9.24827 6.0322 9.12265 5.98017C8.99702 5.92813 8.88965 5.84002 8.81411 5.72696C8.73856 5.6139 8.69824 5.48098 8.69824 5.345C8.69837 5.16271 8.77085 4.98791 8.89975 4.85901C9.02866 4.73011 9.20345 4.65763 9.38574 4.6575V4.6575Z" fill="#1C1C1C"/>
<path d="M20.735 6.431C21.044 6.431 21.3461 6.33936 21.6031 6.16767C21.86 5.99598 22.0603 5.75195 22.1786 5.46644C22.2968 5.18093 22.3278 4.86677 22.2675 4.56367C22.2072 4.26058 22.0584 3.98217 21.8398 3.76365C21.6213 3.54513 21.3429 3.39631 21.0398 3.33602C20.7367 3.27573 20.4226 3.30668 20.137 3.42494C19.8515 3.5432 19.6075 3.74347 19.4358 4.00042C19.2641 4.25737 19.1725 4.55947 19.1725 4.8685C19.1729 5.28276 19.3377 5.67992 19.6306 5.97284C19.9236 6.26577 20.3207 6.43054 20.735 6.431V6.431ZM20.735 4.181C20.871 4.181 21.0039 4.22132 21.1169 4.29686C21.23 4.37241 21.3181 4.47978 21.3702 4.60541C21.4222 4.73103 21.4358 4.86926 21.4093 5.00262C21.3828 5.13599 21.3173 5.25849 21.2211 5.35464C21.125 5.45078 21.0025 5.51626 20.8691 5.54279C20.7358 5.56932 20.5975 5.5557 20.4719 5.50367C20.3463 5.45163 20.2389 5.36351 20.1634 5.25045C20.0878 5.1374 20.0475 5.00448 20.0475 4.8685C20.0476 4.6862 20.1201 4.51141 20.249 4.38251C20.3779 4.25361 20.5527 4.18113 20.735 4.181V4.181Z" fill="#1C1C1C"/>
</svg>
