<svg width="32" height="32" viewBox="0 0 32 32" fill="none" xmlns="http://www.w3.org/2000/svg">
<path fill-rule="evenodd" clip-rule="evenodd" d="M31.8505 14.8116C31.7547 14.7158 31.6249 14.662 31.4894 14.662H29.9407C29.8726 14.0004 29.5931 13.3835 29.1418 12.8973C29.4648 12.2002 29.5153 11.4076 29.2743 10.6656C29.0331 9.92363 28.5264 9.31213 27.8553 8.93813C27.9473 8.17538 27.7504 7.40601 27.2917 6.77482C26.8332 6.14363 26.1623 5.71863 25.4084 5.57032C25.2601 4.81657 24.8352 4.14563 24.2039 3.68701C23.5729 3.22844 22.8039 3.03157 22.0406 3.12338C21.6666 2.45238 21.0551 1.94557 20.3131 1.70451C19.5713 1.46351 18.7787 1.51401 18.0815 1.83707C17.5184 1.31426 16.7802 1.02126 16 1.02126C15.2198 1.02126 14.4816 1.31426 13.9186 1.83682C13.2216 1.51376 12.4291 1.46326 11.687 1.70432C10.945 1.94538 10.3335 2.45219 9.95944 3.12319C9.19712 3.03144 8.42725 3.22826 7.79612 3.68682C7.165 4.14538 6.73987 4.81638 6.5915 5.57013C5.83775 5.71844 5.16681 6.14351 4.70825 6.77463C4.24963 7.40582 4.05275 8.17526 4.14463 8.93801C3.47356 9.31201 2.96681 9.92357 2.72569 10.6656C2.48463 11.4076 2.53513 12.2001 2.85819 12.8972C2.40687 13.3834 2.12731 14.0003 2.05925 14.6619H0.510562C0.375125 14.6619 0.245313 14.7158 0.149438 14.8115C0.0538125 14.9073 0 15.0372 0 15.1726C0 20.5616 2.667 25.5236 7.14894 28.5028V29.1064C7.14894 30.1388 7.98887 30.9787 9.02125 30.9787H22.9788C24.0111 30.9787 24.8511 30.1388 24.8511 29.1064V28.5028C29.333 25.5236 32 20.5616 32 15.1726C32 15.0372 31.9462 14.9073 31.8505 14.8116ZM24.0651 27.7963C23.9185 27.8902 23.8298 28.0523 23.8298 28.2263V29.1064C23.8298 29.5757 23.448 29.9574 22.9787 29.9574H9.02125C8.55194 29.9574 8.17019 29.5757 8.17019 29.1064V28.2263C8.17019 28.0522 8.0815 27.8901 7.93488 27.7963C3.74981 25.1168 1.19519 20.6171 1.02988 15.6833L7.31919 15.6834C7.60119 15.6834 7.82981 15.4548 7.82981 15.1728C7.82981 14.8908 7.60125 14.6622 7.31919 14.6622L3.08888 14.6621C3.16594 14.1674 3.42194 13.7168 3.818 13.3943C4.01981 13.2299 4.06569 12.9401 3.92456 12.7214C3.58931 12.2021 3.50638 11.5679 3.69694 10.9813C3.88756 10.3948 4.3275 9.93044 4.90387 9.70732C5.14663 9.61338 5.27981 9.35182 5.21319 9.10026C5.05481 8.50282 5.17194 7.87407 5.5345 7.37513C5.897 6.87619 6.45881 6.57051 7.07594 6.53644C7.33581 6.52213 7.54325 6.31463 7.55762 6.05476C7.59175 5.43763 7.89744 4.87569 8.39631 4.51332C8.89525 4.15076 9.524 4.03363 10.1216 4.19201C10.3732 4.25876 10.6346 4.12551 10.7286 3.88276C10.9517 3.30632 11.4161 2.86644 12.0026 2.67588C12.5893 2.48532 13.2234 2.56826 13.7426 2.90344C13.9615 3.04469 14.2512 2.99863 14.4155 2.79688C14.8057 2.31744 15.3833 2.04257 16.0001 2.04257C16.6169 2.04257 17.1944 2.31744 17.5846 2.79669C17.749 2.99851 18.0387 3.04451 18.2575 2.90326C18.7769 2.56807 19.411 2.48513 19.9976 2.67569C20.5842 2.86632 21.0485 3.30613 21.2716 3.88251C21.3654 4.12532 21.6273 4.25838 21.8786 4.19182C22.476 4.03351 23.1049 4.15063 23.6038 4.51313C24.1028 4.87569 24.4084 5.43744 24.4425 6.05457C24.4568 6.31444 24.6643 6.52194 24.9242 6.53626C25.5412 6.57032 26.1031 6.87601 26.4657 7.37494C26.8282 7.87388 26.9452 8.50269 26.7869 9.10007C26.7203 9.35163 26.8535 9.61313 27.0963 9.70713C27.6727 9.93026 28.1126 10.3946 28.3032 10.9811C28.4938 11.5676 28.4108 12.2018 28.0756 12.7211C27.9345 12.9398 27.9804 13.2296 28.1821 13.394C28.5782 13.7165 28.8341 14.1671 28.9112 14.6619L9.36175 14.6621C9.07969 14.6621 8.85112 14.8908 8.85112 15.1728C8.85112 15.4548 9.07975 15.6834 9.36175 15.6834L30.9702 15.6833C30.8048 20.6171 28.2502 25.1167 24.0651 27.7963ZM12.4194 6.03226H13.4516V7.06451H12.4194V6.03226ZM16.0323 8.6129H15V9.64516H16.0323V8.6129ZM15 11.7097H13.9677V12.7419H15V11.7097ZM19.129 11.7097H18.0968V12.7419H19.129V11.7097ZM17.0645 9.64516H18.0968V10.6774H17.0645V9.64516ZM13.4516 9.64516H12.4194V10.6774H13.4516V9.64516ZM9.70212 27.7157H22.2979C22.5799 27.7157 22.8085 27.9443 22.8085 28.2263C22.8085 28.5083 22.5799 28.7369 22.2979 28.7369H9.70212C9.42006 28.7369 9.1915 28.5083 9.1915 28.2263C9.1915 27.9443 9.42006 27.7157 9.70212 27.7157Z" fill="#1C1C1C"/>
</svg>
