<svg width="32" height="32" viewBox="0 0 32 32" fill="none" xmlns="http://www.w3.org/2000/svg">
<path fill-rule="evenodd" clip-rule="evenodd" d="M30.4233 5.56125C30.5393 5.56125 30.6506 5.51516 30.7326 5.43311C30.8147 5.35106 30.8608 5.23978 30.8608 5.12375V3.3725C30.8608 3.31504 30.8495 3.25813 30.8275 3.20504C30.8055 3.15194 30.7733 3.1037 30.7327 3.06307C30.6921 3.02244 30.6438 2.99021 30.5907 2.96824C30.5376 2.94626 30.4807 2.93497 30.4233 2.935H16.9605C16.9412 2.45272 16.7362 1.99656 16.3884 1.66189C16.0406 1.32723 15.5769 1.13996 15.0943 1.13925H8.85826C8.37559 1.13996 7.91188 1.32723 7.56408 1.66189C7.21627 1.99656 7.0113 2.45272 6.99201 2.935H5.36701C5.02188 2.93976 4.69251 3.08021 4.45014 3.32595C4.20776 3.57169 4.07188 3.90297 4.07188 4.24813C4.07188 4.59328 4.20776 4.92457 4.45014 5.17031C4.69251 5.41605 5.02188 5.55649 5.36701 5.56125H6.98826V6.935H5.36701C5.02188 6.93976 4.69251 7.08021 4.45014 7.32595C4.20776 7.57169 4.07188 7.90297 4.07188 8.24813C4.07188 8.59328 4.20776 8.92457 4.45014 9.17031C4.69251 9.41605 5.02188 9.55649 5.36701 9.56125H6.98826V14.5625H1.57676C1.46073 14.5625 1.34945 14.6086 1.2674 14.6906C1.18535 14.7727 1.13926 14.884 1.13926 15C1.13801 17.6466 1.84428 20.2453 3.18492 22.5272C4.52556 24.809 6.45184 26.691 8.76426 27.9783V30.4233C8.76423 30.4807 8.77552 30.5376 8.79749 30.5907C8.81947 30.6438 8.85169 30.6921 8.89233 30.7327C8.93296 30.7733 8.9812 30.8055 9.0343 30.8275C9.08739 30.8495 9.1443 30.8608 9.20176 30.8608H22.8C22.8575 30.8608 22.9144 30.8495 22.9675 30.8275C23.0206 30.8055 23.0688 30.7733 23.1094 30.7327C23.1501 30.6921 23.1823 30.6438 23.2043 30.5907C23.2262 30.5376 23.2375 30.4807 23.2375 30.4233V27.9783C25.5496 26.6908 27.4755 24.8087 28.8159 22.5269C30.1562 20.245 30.8622 17.6464 30.8608 15C30.8608 14.884 30.8147 14.7727 30.7326 14.6906C30.6506 14.6086 30.5393 14.5625 30.4233 14.5625H16.9643V9.56125H30.4233C30.5393 9.56125 30.6506 9.51516 30.7326 9.43311C30.8147 9.35106 30.8608 9.23978 30.8608 9.12375V7.37375C30.8608 7.31629 30.8495 7.25938 30.8275 7.20629C30.8055 7.15319 30.7733 7.10495 30.7327 7.06432C30.6921 7.02369 30.6438 6.99146 30.5907 6.96949C30.5376 6.94751 30.4807 6.93622 30.4233 6.93625H16.9643V5.56125H30.4233ZM29.9858 4.68625H16.9643V3.81H29.9858V4.68625ZM12.3565 14.5625V2.01425H13.7878V14.5625H12.3565ZM10.0505 14.5625V2.01425H11.4815V14.5625H10.0505ZM5.36701 4.6875C5.25262 4.68477 5.14384 4.63741 5.06391 4.55554C4.98397 4.47368 4.93923 4.3638 4.93923 4.24938C4.93923 4.13496 4.98397 4.02508 5.06391 3.94321C5.14384 3.86134 5.25262 3.81398 5.36701 3.81125H6.98826V4.6875H5.36701ZM5.36701 8.6875C5.25541 8.68096 5.15052 8.63202 5.07382 8.55069C4.99711 8.46936 4.95439 8.3618 4.95439 8.25C4.95439 8.13821 4.99711 8.03064 5.07382 7.94931C5.15052 7.86798 5.25541 7.81904 5.36701 7.8125H6.98826V8.6875H5.36701ZM7.86326 3.0105C7.86352 2.74669 7.96844 2.49376 8.15498 2.30722C8.34152 2.12068 8.59445 2.01577 8.85826 2.0155H9.17501V14.5625H7.86326V3.0105ZM9.63826 29.987V28.1603H22.3615V29.987H9.63826ZM22.6883 27.2853H9.31176C7.16775 26.119 5.36655 24.4116 4.08743 22.333C2.80831 20.2544 2.09587 17.877 2.02101 15.4375H29.979C29.9039 17.8768 29.1914 20.2539 27.9123 22.3323C26.6332 24.4107 24.8321 26.1179 22.6883 27.284V27.2853ZM14.6628 14.5625V2.01425H15.0943C15.3581 2.01452 15.611 2.11943 15.7975 2.30597C15.9841 2.49251 16.089 2.74544 16.0893 3.00925V14.5625H14.6628ZM29.9858 7.81V8.685H16.9643V7.81H29.9858ZM21.6763 25.496C21.7516 25.496 21.8256 25.4765 21.891 25.4392C23.8785 24.3167 25.5048 22.6508 26.579 20.6368C26.6323 20.5345 26.6431 20.4154 26.609 20.3053C26.575 20.1952 26.4989 20.1029 26.3972 20.0486C26.2955 19.9943 26.1765 19.9823 26.0661 20.0152C25.9556 20.0482 25.8626 20.1234 25.8073 20.2245C24.8112 22.0919 23.3033 23.6366 21.4605 24.6775C21.3763 24.725 21.3102 24.7992 21.2725 24.8883C21.2349 24.9774 21.2278 25.0765 21.2525 25.17C21.2772 25.2635 21.3321 25.3463 21.4088 25.4053C21.4855 25.4642 21.5795 25.4962 21.6763 25.496ZM27.0377 18.9555C26.9804 18.9603 26.9228 18.9537 26.868 18.9362C26.7577 18.9008 26.6659 18.8232 26.6128 18.7202C26.5596 18.6172 26.5495 18.4974 26.5845 18.387C26.7109 17.9914 26.8148 17.589 26.8958 17.1817C26.907 17.1254 26.9292 17.0718 26.9611 17.024C26.993 16.9763 27.034 16.9352 27.0818 16.9033C27.1296 16.8714 27.1832 16.8492 27.2395 16.838C27.2959 16.8268 27.3539 16.8268 27.4103 16.838C27.4666 16.8492 27.5202 16.8714 27.568 16.9033C27.6158 16.9353 27.6568 16.9763 27.6887 17.0241C27.7206 17.0718 27.7428 17.1254 27.754 17.1818C27.7652 17.2381 27.7652 17.2961 27.754 17.3525C27.6666 17.7918 27.5544 18.2258 27.418 18.6525C27.4005 18.7072 27.3725 18.758 27.3354 18.8019C27.2983 18.8458 27.2529 18.882 27.2018 18.9083C27.1507 18.9347 27.095 18.9507 27.0377 18.9555Z" fill="#1C1C1C"/>
</svg>
